<svg width="264" height="262" viewBox="0 0 264 262" fill="none" xmlns="http://www.w3.org/2000/svg">
<path d="M43.4431 238.044V255.956H69.639H98.5278V238.044H43.4431Z" fill="#F5F5F5"/>
<path d="M41.1316 233.039V238.044H100.458V233.039H69.6391H41.1316Z" fill="#E0E0E0"/>
<path d="M70.7949 255.956H98.528V238.044H100.458V233.039H69.6391V237.58L70.7949 255.956Z" fill="#E0E0E0"/>
<path d="M62.317 240.93H51.1464V243.629H62.317V240.93Z" fill="#E0E0E0"/>
<path d="M64.0538 247.003H49.7091V252.694H64.0538V247.003Z" fill="white"/>
<path d="M51.9208 215.151V233.063H78.1167H107.006V215.151H51.9208Z" fill="#F5F5F5"/>
<path d="M49.6094 210.141V215.151H108.93V210.141H78.1168H49.6094Z" fill="#E0E0E0"/>
<path d="M79.2725 233.063H107.005V215.151H108.93V210.141H78.1167V214.688L79.2725 233.063Z" fill="#E0E0E0"/>
<path d="M70.7948 218.038H59.6241V220.736H70.7948V218.038Z" fill="#E0E0E0"/>
<path d="M72.5315 224.104H58.1868V229.795H72.5315V224.104Z" fill="white"/>
<path d="M52.2084 17.6815C53.6945 16.7867 55.2924 16.0923 56.9606 15.6163L57.9345 10.9228L65.8725 10.7937L67.0459 15.4521C68.7283 15.8674 70.3481 16.5047 71.8626 17.3471L75.8756 14.7187L81.59 20.2336L79.1024 24.3405C79.9996 25.8254 80.6942 27.4236 81.1676 29.0927L85.8611 30.0666L85.9961 38.0104L81.326 39.131C80.9106 40.8135 80.2734 42.4333 79.431 43.9478L82.0594 47.9608L76.5444 53.6752L72.4376 51.1876C70.9527 52.0848 69.3544 52.7793 67.6854 53.2528L66.7114 57.9463L58.7735 58.0813L57.6001 53.4229C55.9176 53.0075 54.2978 52.3703 52.7833 51.5279L48.7703 54.1563L43.0559 48.6413L45.5435 44.5345C44.6464 43.0516 43.9519 41.4553 43.4783 39.7881L38.7848 38.8083L38.6499 30.8704L43.3082 29.7263C43.7236 28.0438 44.3608 26.4241 45.2032 24.9096L42.6042 20.9083L48.1191 15.1939L52.226 17.6815H52.2084ZM56.4443 28.242C55.2739 29.454 54.4892 30.9859 54.1894 32.6439C53.8897 34.302 54.0883 36.0116 54.7602 37.5568C55.4322 39.1019 56.5472 40.4131 57.9643 41.3245C59.3815 42.2359 61.037 42.7065 62.7217 42.677C64.4063 42.6475 66.0444 42.119 67.4287 41.1585C68.813 40.198 69.8814 38.8485 70.4987 37.2808C71.1161 35.7131 71.2546 33.9975 70.8969 32.351C70.5392 30.7045 69.7013 29.201 68.4891 28.0308C66.8615 26.4639 64.6781 25.6078 62.4193 25.6507C60.1605 25.6936 58.0112 26.6321 56.4443 28.2596V28.242Z" fill="#EBEBEB"/>
<path d="M179.938 8.21812C181.705 7.15059 183.607 6.32387 185.593 5.75987L186.767 0.162809L196.218 -0.00146484L197.58 5.54866C199.584 6.04262 201.514 6.80227 203.317 7.80743L208.099 4.67449L214.905 11.2455L211.942 16.1326C213.01 17.8995 213.837 19.8017 214.4 21.7884L219.997 22.9617L220.161 32.4193L214.611 33.7804C214.115 35.7843 213.355 37.7136 212.352 39.5183L215.485 44.2998L208.914 51.0996L204.027 48.1368C202.262 49.2077 200.359 50.0346 198.372 50.595L197.198 56.1921L187.741 56.3622L186.38 50.8063C184.374 50.3149 182.444 49.5551 180.642 48.5475L175.86 51.6804L169.06 45.1153L172.023 40.2282C170.953 38.462 170.126 36.5596 169.565 34.5724L163.968 33.399L163.798 23.9415L169.354 22.5804C169.847 20.5755 170.607 18.6457 171.612 16.8425L168.479 12.0668L175.045 5.26118L179.932 8.19465L179.938 8.21812ZM184.983 20.8144C183.59 22.2579 182.656 24.0821 182.299 26.0563C181.943 28.0306 182.179 30.0663 182.98 31.906C183.78 33.7456 185.108 35.3067 186.795 36.3917C188.483 37.4768 190.454 38.0371 192.46 38.0018C194.466 37.9665 196.416 37.3373 198.065 36.1936C199.713 35.0498 200.985 33.443 201.72 31.5764C202.455 29.7097 202.62 27.6669 202.194 25.7064C201.769 23.7459 200.771 21.9557 199.328 20.5622C197.392 18.6946 194.793 17.6722 192.103 17.7195C189.414 17.7668 186.853 18.88 184.983 20.8144Z" fill="#EBEBEB"/>
<path d="M181.369 84.9988C182.749 84.1647 184.235 83.5195 185.787 83.0803L186.696 78.7094L194.083 78.5745L195.145 82.916C196.71 83.3014 198.218 83.8933 199.627 84.6761L203.364 82.2296L208.674 87.3631L206.362 91.1767C207.196 92.5569 207.842 94.0428 208.281 95.5945L212.652 96.5038L212.787 103.89L208.445 104.958C208.059 106.523 207.467 108.031 206.685 109.44L209.131 113.172L203.998 118.487L200.184 116.17C198.803 117.003 197.318 117.65 195.767 118.094L194.857 122.465L187.471 122.594L186.403 118.258C184.837 117.873 183.33 117.281 181.921 116.498L178.189 118.945L172.85 113.805L175.168 109.992C174.334 108.611 173.687 107.125 173.243 105.574L168.896 104.665L168.743 97.2783L173.079 96.2164C173.465 94.6508 174.056 93.1435 174.839 91.734L172.393 87.9968L177.52 82.6813L181.34 84.9988H181.369ZM185.306 94.8376C184.216 95.965 183.486 97.3902 183.206 98.9328C182.927 100.475 183.111 102.066 183.736 103.504C184.361 104.942 185.398 106.163 186.716 107.011C188.035 107.859 189.575 108.298 191.142 108.271C192.71 108.244 194.234 107.752 195.523 106.859C196.811 105.965 197.805 104.71 198.38 103.251C198.955 101.793 199.084 100.196 198.751 98.6643C198.419 97.1322 197.639 95.7331 196.512 94.644C195 93.184 192.97 92.3842 190.869 92.4206C188.767 92.4569 186.766 93.3263 185.306 94.8376Z" fill="#E0E0E0"/>
<path d="M220.801 62.2702C221.568 61.8082 222.392 61.4491 223.253 61.2024L223.758 58.7735L227.865 58.7031L228.451 61.1144C229.321 61.3259 230.158 61.6556 230.939 62.0942L233.016 60.7331L235.949 63.5844L234.664 65.7024C235.129 66.4702 235.488 67.2971 235.732 68.1606L238.161 68.6652L238.231 72.772L235.82 73.3587C235.607 74.2274 235.28 75.0639 234.846 75.8463L236.202 77.9232L233.35 80.8567L231.232 79.5718C230.465 80.0339 229.641 80.3929 228.78 80.6396L228.269 83.0685L224.163 83.1389L223.576 80.7276C222.707 80.5125 221.87 80.1831 221.088 79.7478L219.011 81.109L216.078 78.2576L217.363 76.1397C216.901 75.3706 216.542 74.5441 216.295 73.6814L213.866 73.1769L213.796 69.07L216.207 68.4833C216.422 67.6144 216.752 66.7779 217.187 65.9957L215.826 63.9188L218.677 60.9854L220.801 62.2702ZM222.983 67.7382C222.38 68.365 221.977 69.1564 221.823 70.0125C221.67 70.8686 221.773 71.751 222.121 72.5482C222.469 73.3454 223.045 74.0217 223.777 74.4916C224.509 74.9615 225.363 75.204 226.233 75.1885C227.103 75.1729 227.948 74.9 228.663 74.4042C229.377 73.9084 229.929 73.2119 230.248 72.4028C230.567 71.5936 230.639 70.7081 230.455 69.8581C230.271 69.008 229.839 68.2315 229.214 67.6267C228.798 67.2242 228.307 66.9077 227.768 66.6954C227.229 66.4831 226.654 66.3791 226.076 66.3895C225.497 66.3998 224.926 66.5243 224.395 66.7557C223.864 66.9872 223.385 67.321 222.983 67.7382Z" fill="#F5F5F5"/>
<path d="M103.556 8.22982C104.322 7.7654 105.146 7.40624 106.008 7.16204L106.513 4.73312L110.62 4.66272L111.206 7.06817C112.075 7.28488 112.911 7.61426 113.694 8.04795L115.771 6.68682L118.704 9.53815L117.419 11.6561C117.884 12.4219 118.243 13.2468 118.487 14.1085L120.916 14.6131L120.986 18.7199L118.575 19.3066C118.362 20.1753 118.035 21.0118 117.601 21.7942L118.957 23.8711L116.105 26.8046L113.987 25.5197C113.229 25.999 112.41 26.374 111.552 26.6344L111.042 29.0633L106.935 29.1396L106.348 26.7283C105.48 26.5132 104.643 26.1837 103.861 25.7485L101.784 27.1096L98.8505 24.2583L100.1 22.111C99.6381 21.344 99.2791 20.5194 99.0324 19.6586L96.6093 19.1541L96.5331 15.0472L98.9444 14.4605C99.164 13.5886 99.4994 12.7499 99.9418 11.9671L98.5806 9.89603L101.432 6.96256L103.556 8.24742V8.22982ZM105.738 13.7271C105.135 14.3539 104.732 15.1453 104.578 16.0014C104.425 16.8575 104.528 17.7399 104.876 18.5371C105.224 19.3343 105.8 20.0106 106.532 20.4805C107.264 20.9505 108.118 21.193 108.988 21.1774C109.858 21.1618 110.703 20.8889 111.418 20.3931C112.132 19.8973 112.684 19.2008 113.003 18.3917C113.322 17.5826 113.394 16.697 113.21 15.847C113.026 14.9969 112.594 14.2205 111.969 13.6157C111.553 13.2138 111.061 12.898 110.523 12.6861C109.984 12.4742 109.409 12.3705 108.831 12.3808C108.252 12.3912 107.681 12.5154 107.151 12.7464C106.62 12.9774 106.14 13.3107 105.738 13.7271Z" fill="#F5F5F5"/>
<path d="M66.6001 74.497C67.3659 74.0326 68.1908 73.6734 69.0524 73.4292L69.557 71.0003L73.6639 70.9299L74.2506 73.3412C75.1225 73.5527 75.9614 73.8823 76.744 74.321L78.815 72.9599L81.7485 75.8112L80.4578 77.9292C80.9233 78.6965 81.2825 79.5235 81.5256 80.3874L83.9545 80.892L84.0249 84.9989L81.6194 85.5855C81.4044 86.4544 81.0749 87.2909 80.6397 88.0731L81.9949 90.15L79.1495 93.0835L77.0256 91.7986C76.2586 92.2607 75.434 92.6197 74.5732 92.8664L74.0687 95.2953L69.9618 95.3657L69.3751 92.9544C68.504 92.7404 67.6655 92.4109 66.8817 91.9746L64.8107 93.3358L61.8772 90.4844L63.1679 88.3665C62.7034 87.5986 62.3442 86.7718 62.1001 85.9082L59.6712 85.4037L59.5949 81.2968L62.0063 80.7101C62.2203 79.8409 62.5499 79.0043 62.986 78.2225L61.6249 76.1456L64.4762 73.2122L66.6001 74.497ZM68.7884 79.965C68.1846 80.5915 67.78 81.3829 67.6259 82.2392C67.4718 83.0956 67.575 83.9784 67.9225 84.7761C68.27 85.5738 68.8462 86.2505 69.5782 86.7208C70.3103 87.1911 71.1654 87.4338 72.0353 87.4182C72.9053 87.4026 73.7511 87.1295 74.4658 86.6333C75.1806 86.1371 75.7322 85.4401 76.0509 84.6305C76.3696 83.8209 76.4412 82.935 76.2565 82.0847C76.0718 81.2344 75.6391 80.458 75.0133 79.8536C74.5974 79.4519 74.1064 79.1361 73.5683 78.9243C73.0303 78.7125 72.4559 78.6089 71.8777 78.6192C71.2996 78.6296 70.7292 78.7537 70.1992 78.9847C69.6691 79.2156 69.1897 79.5487 68.7884 79.965Z" fill="#F5F5F5"/>
<path d="M251.86 256.531C251.86 256.613 195.995 256.683 127.094 256.683C58.1927 256.683 2.31595 256.619 2.31595 256.531C2.31595 256.443 58.1692 256.378 127.094 256.378C196.019 256.378 251.86 256.448 251.86 256.531Z" fill="#263238"/>
<path d="M169.477 256.419L93.3943 256.372C84.2419 256.372 76.8261 248.569 76.8319 238.953L76.8671 38.4974C76.8671 28.8757 84.2947 21.0785 93.453 21.0844L169.535 21.1313C178.688 21.1313 186.104 28.9343 186.098 38.5502L186.063 239.018C186.063 248.628 178.635 256.425 169.477 256.419Z" fill="#263238"/>
<path d="M169.453 28.2185H154.704C152.727 28.2185 151.119 29.9786 151.119 32.1494V34.9596C151.119 37.1363 149.517 38.8964 147.54 38.8964H118.792C116.809 38.8964 115.208 37.1363 115.208 34.9596V32.1435C115.208 29.9727 113.606 28.2068 111.629 28.2068H106.437H93.5292C87.1167 28.2068 81.9127 33.663 81.9127 40.4042L81.8775 236.067C81.8775 242.802 87.0697 248.264 93.4764 248.264L169.412 248.311C175.825 248.311 181.023 242.855 181.023 236.114L181.064 40.4218C181.064 33.6748 175.866 28.2244 169.453 28.2185Z" fill="white"/>
<path d="M145.416 124.301C145.416 125.346 145.107 126.367 144.526 127.235C143.946 128.103 143.122 128.78 142.157 129.18C141.192 129.579 140.13 129.684 139.106 129.48C138.082 129.277 137.141 128.774 136.402 128.035C135.664 127.297 135.161 126.356 134.957 125.332C134.754 124.307 134.858 123.246 135.258 122.281C135.657 121.316 136.334 120.491 137.203 119.911C138.071 119.331 139.092 119.021 140.136 119.021C141.537 119.021 142.88 119.578 143.87 120.568C144.86 121.558 145.416 122.901 145.416 124.301Z" fill="#CCE0FF"/>
<path d="M124.425 129.945C127.535 129.945 130.057 127.419 130.057 124.301C130.057 121.184 127.535 118.657 124.425 118.657C121.314 118.657 118.792 121.184 118.792 124.301C118.792 127.419 121.314 129.945 124.425 129.945Z" fill="#CCE0FF"/>
<path d="M112.356 120.306C115.658 120.306 118.335 117.624 118.335 114.316C118.335 111.008 115.658 108.326 112.356 108.326C109.054 108.326 106.378 111.008 106.378 114.316C106.378 117.624 109.054 120.306 112.356 120.306Z" fill="#CCE0FF"/>
<path d="M109.91 105.216C113.357 105.216 116.152 102.414 116.152 98.9562C116.152 95.4989 113.357 92.6962 109.91 92.6962C106.462 92.6962 103.667 95.4989 103.667 98.9562C103.667 102.414 106.462 105.216 109.91 105.216Z" fill="#CCE0FF"/>
<path d="M117.554 91.9863C121.119 91.9863 124.008 89.089 124.008 85.5151C124.008 81.9411 121.119 79.0438 117.554 79.0438C113.99 79.0438 111.101 81.9411 111.101 85.5151C111.101 89.089 113.99 91.9863 117.554 91.9863Z" fill="#CCE0FF"/>
<path d="M132.251 87.2517C136.136 87.2517 139.285 84.0944 139.285 80.1996C139.285 76.3049 136.136 73.1476 132.251 73.1476C128.366 73.1476 125.216 76.3049 125.216 80.1996C125.216 84.0944 128.366 87.2517 132.251 87.2517Z" fill="#CCE0FF"/>
<path d="M156.904 114.193C156.902 115.203 156.6 116.19 156.037 117.028C155.474 117.867 154.675 118.52 153.741 118.905C152.807 119.29 151.78 119.39 150.79 119.191C149.799 118.993 148.89 118.505 148.176 117.79C147.463 117.075 146.977 116.164 146.781 115.174C146.585 114.183 146.687 113.156 147.074 112.223C147.461 111.29 148.116 110.492 148.956 109.931C149.796 109.37 150.784 109.071 151.794 109.071C152.466 109.072 153.131 109.205 153.751 109.462C154.372 109.72 154.935 110.098 155.41 110.573C155.884 111.049 156.26 111.613 156.517 112.234C156.773 112.855 156.905 113.521 156.904 114.193Z" fill="#CCE0FF"/>
<path d="M154.528 103.538C157.146 103.538 159.268 101.411 159.268 98.786C159.268 96.1615 157.146 94.0338 154.528 94.0338C151.91 94.0338 149.787 96.1615 149.787 98.786C149.787 101.411 151.91 103.538 154.528 103.538Z" fill="#CCE0FF"/>
<path d="M146.643 89.6748C149.034 89.6748 150.972 87.731 150.972 85.3332C150.972 82.9355 149.034 80.9917 146.643 80.9917C144.251 80.9917 142.313 82.9355 142.313 85.3332C142.313 87.731 144.251 89.6748 146.643 89.6748Z" fill="#CCE0FF"/>
<g opacity="0.5">
<path d="M145.416 124.301C145.416 125.346 145.107 126.367 144.526 127.235C143.946 128.103 143.122 128.78 142.157 129.18C141.192 129.579 140.13 129.684 139.106 129.48C138.082 129.277 137.141 128.774 136.402 128.035C135.664 127.297 135.161 126.356 134.957 125.332C134.754 124.307 134.858 123.246 135.258 122.281C135.657 121.316 136.334 120.491 137.203 119.911C138.071 119.331 139.092 119.021 140.136 119.021C141.537 119.021 142.88 119.578 143.87 120.568C144.86 121.558 145.416 122.901 145.416 124.301Z" fill="white"/>
</g>
<g opacity="0.4">
<path d="M124.425 129.945C127.535 129.945 130.057 127.419 130.057 124.301C130.057 121.184 127.535 118.657 124.425 118.657C121.314 118.657 118.792 121.184 118.792 124.301C118.792 127.419 121.314 129.945 124.425 129.945Z" fill="white"/>
</g>
<g opacity="0.3">
<path d="M112.356 120.306C115.658 120.306 118.335 117.624 118.335 114.316C118.335 111.008 115.658 108.326 112.356 108.326C109.054 108.326 106.378 111.008 106.378 114.316C106.378 117.624 109.054 120.306 112.356 120.306Z" fill="white"/>
</g>
<g opacity="0.2">
<path d="M109.91 105.216C113.357 105.216 116.152 102.414 116.152 98.9562C116.152 95.4989 113.357 92.6962 109.91 92.6962C106.462 92.6962 103.667 95.4989 103.667 98.9562C103.667 102.414 106.462 105.216 109.91 105.216Z" fill="white"/>
</g>
<g opacity="0.1">
<path d="M117.554 91.9863C121.119 91.9863 124.008 89.089 124.008 85.5151C124.008 81.9411 121.119 79.0438 117.554 79.0438C113.99 79.0438 111.101 81.9411 111.101 85.5151C111.101 89.089 113.99 91.9863 117.554 91.9863Z" fill="white"/>
</g>
<g opacity="0.2">
<path d="M132.251 87.2517C136.136 87.2517 139.285 84.0944 139.285 80.1996C139.285 76.3049 136.136 73.1476 132.251 73.1476C128.366 73.1476 125.216 76.3049 125.216 80.1996C125.216 84.0944 128.366 87.2517 132.251 87.2517Z" fill="white"/>
</g>
<g opacity="0.6">
<path d="M156.904 114.193C156.902 115.203 156.6 116.19 156.037 117.028C155.474 117.867 154.675 118.52 153.741 118.905C152.807 119.29 151.78 119.39 150.79 119.191C149.799 118.993 148.89 118.505 148.176 117.79C147.463 117.075 146.977 116.164 146.781 115.174C146.585 114.183 146.687 113.156 147.074 112.223C147.461 111.29 148.116 110.492 148.956 109.931C149.796 109.37 150.784 109.071 151.794 109.071C152.466 109.072 153.131 109.205 153.751 109.462C154.372 109.72 154.935 110.098 155.41 110.573C155.884 111.049 156.26 111.613 156.517 112.234C156.773 112.855 156.905 113.521 156.904 114.193Z" fill="white"/>
</g>
<g opacity="0.7">
<path d="M154.528 103.538C157.146 103.538 159.268 101.411 159.268 98.786C159.268 96.1615 157.146 94.0338 154.528 94.0338C151.91 94.0338 149.787 96.1615 149.787 98.786C149.787 101.411 151.91 103.538 154.528 103.538Z" fill="white"/>
</g>
<g opacity="0.8">
<path d="M146.643 89.6748C149.034 89.6748 150.972 87.731 150.972 85.3332C150.972 82.9355 149.034 80.9917 146.643 80.9917C144.251 80.9917 142.313 82.9355 142.313 85.3332C142.313 87.731 144.251 89.6748 146.643 89.6748Z" fill="white"/>
</g>
<path d="M115.389 175.068C115.385 174.814 115.433 174.561 115.53 174.326C115.627 174.09 115.771 173.877 115.954 173.7C116.136 173.522 116.353 173.384 116.591 173.293C116.829 173.203 117.083 173.162 117.337 173.173C117.59 173.164 117.841 173.208 118.076 173.302C118.31 173.396 118.522 173.538 118.698 173.719L118.446 173.965C118.303 173.821 118.132 173.707 117.943 173.631C117.755 173.555 117.552 173.519 117.349 173.525C117.146 173.525 116.946 173.565 116.759 173.643C116.571 173.72 116.401 173.834 116.258 173.977C116.115 174.12 116.001 174.29 115.923 174.478C115.846 174.665 115.806 174.865 115.806 175.068C115.806 175.271 115.846 175.471 115.923 175.659C116.001 175.846 116.115 176.016 116.258 176.159C116.401 176.302 116.571 176.416 116.759 176.494C116.946 176.571 117.146 176.611 117.349 176.611C117.553 176.617 117.756 176.581 117.945 176.504C118.133 176.427 118.304 176.312 118.446 176.165L118.698 176.412C118.522 176.594 118.309 176.737 118.073 176.832C117.838 176.927 117.585 176.972 117.331 176.963C117.078 176.974 116.824 176.932 116.587 176.841C116.35 176.75 116.134 176.612 115.952 176.434C115.77 176.257 115.626 176.044 115.53 175.809C115.433 175.574 115.385 175.322 115.389 175.068Z" fill="#263238"/>
<path d="M122.641 173.173V176.899H122.254V175.18H119.907V176.899H119.514V173.173H119.907V174.839H122.254V173.173H122.641Z" fill="#263238"/>
<path d="M126.501 176.558V176.899H123.873V173.173H126.419V173.513H124.266V174.839H126.19V175.18H124.266V176.558H126.501Z" fill="#263238"/>
<path d="M127.053 175.068C127.049 174.814 127.096 174.561 127.194 174.326C127.291 174.09 127.435 173.877 127.617 173.7C127.8 173.522 128.017 173.384 128.255 173.293C128.492 173.203 128.746 173.162 129.001 173.173C129.253 173.164 129.505 173.208 129.739 173.302C129.974 173.396 130.186 173.538 130.362 173.719L130.11 173.965C129.967 173.821 129.795 173.707 129.607 173.631C129.418 173.555 129.216 173.519 129.012 173.525C128.81 173.525 128.609 173.565 128.422 173.643C128.235 173.72 128.065 173.834 127.921 173.977C127.778 174.12 127.664 174.29 127.587 174.478C127.509 174.665 127.469 174.865 127.469 175.068C127.469 175.271 127.509 175.471 127.587 175.659C127.664 175.846 127.778 176.016 127.921 176.159C128.065 176.302 128.235 176.416 128.422 176.494C128.609 176.571 128.81 176.611 129.012 176.611C129.216 176.617 129.419 176.581 129.608 176.504C129.797 176.427 129.968 176.312 130.11 176.165L130.362 176.412C130.185 176.594 129.972 176.737 129.737 176.832C129.501 176.927 129.249 176.972 128.995 176.963C128.741 176.974 128.488 176.932 128.25 176.841C128.013 176.75 127.797 176.612 127.615 176.434C127.433 176.257 127.29 176.044 127.193 175.809C127.096 175.574 127.049 175.322 127.053 175.068Z" fill="#263238"/>
<path d="M132.368 175.15L131.606 175.925V176.899H131.195V173.173H131.588V175.426L133.771 173.173H134.222L132.615 174.863L134.334 176.899H133.87L132.368 175.15Z" fill="#263238"/>
<path d="M134.973 173.173H135.366V176.899H134.973V173.173Z" fill="#263238"/>
<path d="M139.678 173.173V176.899H139.356L136.968 173.895V176.916H136.575V173.191H136.897L139.291 176.218V173.191L139.678 173.173Z" fill="#263238"/>
<path d="M143.516 175.068H143.891V176.488C143.511 176.807 143.026 176.976 142.53 176.963C142.281 176.963 142.035 176.914 141.805 176.819C141.575 176.724 141.366 176.584 141.19 176.408C141.014 176.232 140.874 176.023 140.779 175.793C140.684 175.563 140.635 175.317 140.635 175.068C140.635 174.819 140.684 174.573 140.779 174.343C140.874 174.113 141.014 173.904 141.19 173.728C141.366 173.552 141.575 173.413 141.805 173.317C142.035 173.222 142.281 173.173 142.53 173.173C142.786 173.162 143.041 173.204 143.279 173.297C143.518 173.39 143.734 173.531 143.915 173.713L143.668 173.959C143.489 173.769 143.265 173.627 143.017 173.545C142.769 173.464 142.504 173.445 142.247 173.491C141.99 173.537 141.749 173.647 141.544 173.81C141.34 173.973 141.18 174.184 141.078 174.424C140.976 174.665 140.935 174.927 140.96 175.187C140.984 175.447 141.073 175.696 141.218 175.914C141.364 176.131 141.561 176.308 141.792 176.43C142.023 176.552 142.281 176.614 142.542 176.611C142.889 176.622 143.23 176.521 143.516 176.324V175.068Z" fill="#263238"/>
<path d="M144.724 176.635C144.723 176.597 144.73 176.56 144.744 176.525C144.758 176.49 144.778 176.458 144.804 176.432C144.831 176.405 144.862 176.384 144.897 176.369C144.931 176.355 144.968 176.347 145.006 176.347C145.082 176.347 145.155 176.377 145.209 176.431C145.263 176.485 145.293 176.558 145.293 176.635C145.293 176.711 145.263 176.785 145.209 176.84C145.156 176.895 145.082 176.926 145.006 176.928C144.968 176.927 144.931 176.919 144.896 176.904C144.861 176.889 144.83 176.867 144.804 176.84C144.778 176.812 144.757 176.78 144.744 176.745C144.73 176.71 144.723 176.672 144.724 176.635Z" fill="#263238"/>
<path d="M145.862 176.635C145.862 176.597 145.868 176.56 145.882 176.525C145.896 176.49 145.916 176.458 145.943 176.432C145.969 176.405 146 176.384 146.035 176.369C146.069 176.355 146.106 176.347 146.144 176.347C146.182 176.347 146.219 176.355 146.254 176.369C146.289 176.383 146.321 176.405 146.347 176.431C146.374 176.458 146.395 176.49 146.41 176.525C146.424 176.56 146.431 176.597 146.431 176.635C146.431 176.711 146.401 176.785 146.348 176.84C146.294 176.895 146.221 176.926 146.144 176.928C146.106 176.928 146.068 176.92 146.033 176.906C145.998 176.891 145.967 176.869 145.941 176.841C145.914 176.814 145.894 176.782 145.88 176.746C145.867 176.71 145.861 176.673 145.862 176.635Z" fill="#263238"/>
<path d="M146.977 176.635C146.976 176.597 146.983 176.56 146.997 176.525C147.011 176.49 147.031 176.458 147.057 176.432C147.084 176.405 147.115 176.384 147.15 176.369C147.184 176.355 147.221 176.347 147.259 176.347C147.296 176.347 147.333 176.355 147.368 176.369C147.402 176.384 147.434 176.405 147.46 176.432C147.486 176.458 147.507 176.49 147.521 176.525C147.534 176.56 147.541 176.597 147.54 176.635C147.541 176.672 147.534 176.71 147.521 176.745C147.507 176.78 147.486 176.812 147.46 176.84C147.434 176.867 147.403 176.889 147.368 176.904C147.334 176.919 147.296 176.927 147.259 176.928C147.221 176.928 147.183 176.92 147.148 176.906C147.113 176.891 147.082 176.869 147.055 176.841C147.029 176.814 147.008 176.782 146.995 176.746C146.982 176.71 146.975 176.673 146.977 176.635Z" fill="#263238"/>
<path d="M160.723 151.618H102.271C98.6354 151.618 95.6882 154.565 95.6882 158.201V159.292C95.6882 162.927 98.6354 165.875 102.271 165.875H160.723C164.359 165.875 167.306 162.927 167.306 159.292V158.201C167.306 154.565 164.359 151.618 160.723 151.618Z" fill="#F5F5F5"/>
<path d="M128.919 151.618H102.271C98.6354 151.618 95.6882 154.565 95.6882 158.201V159.292C95.6882 162.927 98.6354 165.875 102.271 165.875H128.919C132.554 165.875 135.501 162.927 135.501 159.292V158.201C135.501 154.565 132.554 151.618 128.919 151.618Z" fill="#CCE0FF"/>
<path d="M152.621 159.814C152.621 160.553 152.111 161.117 151.078 161.117C150.794 161.129 150.51 161.083 150.243 160.982C149.977 160.881 149.734 160.728 149.529 160.53L149.693 160.283C149.873 160.465 150.088 160.607 150.326 160.701C150.563 160.795 150.817 160.838 151.072 160.829C151.888 160.829 152.304 160.418 152.304 159.832C152.304 159.245 151.917 158.817 150.72 158.817H149.828L150.063 156.675H152.41V156.969H150.345L150.174 158.523H150.802C152.134 158.494 152.621 159.004 152.621 159.814Z" fill="#CCE0FF"/>
<path d="M156.106 159.814C156.106 160.553 155.595 161.117 154.563 161.117C154.278 161.129 153.994 161.083 153.728 160.982C153.462 160.881 153.219 160.728 153.014 160.53L153.178 160.283C153.358 160.465 153.573 160.607 153.81 160.701C154.048 160.795 154.302 160.838 154.557 160.829C155.372 160.829 155.783 160.418 155.783 159.832C155.783 159.245 155.402 158.817 154.205 158.817H153.313L153.542 156.675H155.889V156.969H153.818L153.653 158.523H154.281C155.613 158.494 156.106 159.004 156.106 159.814Z" fill="#CCE0FF"/>
<path d="M156.587 157.813C156.587 157.098 156.986 156.64 157.555 156.64C158.124 156.64 158.535 157.115 158.535 157.813C158.535 158.512 158.13 158.987 157.555 158.987C156.98 158.987 156.587 158.535 156.587 157.813ZM158.294 157.813C158.294 157.227 157.995 156.839 157.555 156.839C157.115 156.839 156.828 157.209 156.828 157.813C156.828 158.418 157.121 158.793 157.555 158.793C157.989 158.793 158.294 158.424 158.294 157.813ZM160.242 156.64H160.53L157.52 161.058H157.25L160.242 156.64ZM159.221 159.89C159.221 159.169 159.62 158.717 160.195 158.717C160.77 158.717 161.163 159.186 161.163 159.89C161.163 160.594 160.77 161.064 160.195 161.064C159.62 161.064 159.221 160.618 159.221 159.896V159.89ZM160.923 159.89C160.923 159.304 160.629 158.911 160.195 158.911C159.761 158.911 159.456 159.28 159.456 159.89C159.456 160.5 159.755 160.87 160.195 160.87C160.635 160.87 160.923 160.5 160.923 159.896V159.89Z" fill="#CCE0FF"/>
<g opacity="0.2">
<path d="M113.001 151.618L107.651 165.704H111.582L116.574 151.618H113.001Z" fill="white"/>
</g>
<g opacity="0.2">
<path d="M122.658 151.618L117.302 165.704H121.239L126.226 151.618H122.658Z" fill="white"/>
</g>
<g opacity="0.2">
<path d="M132.116 152.68L127.129 165.792H129.476C130.097 165.66 130.702 165.463 131.283 165.206L134.715 155.49C134.102 154.348 133.207 153.38 132.116 152.68Z" fill="white"/>
</g>
<g opacity="0.2">
<path d="M103.62 151.6L98.6978 164.555C99.7493 165.239 100.965 165.63 102.218 165.687L107.211 151.606L103.62 151.6Z" fill="white"/>
</g>
<path d="M160.594 165.875C161.134 165.842 161.67 165.764 162.196 165.64C163.707 165.254 165.036 164.351 165.951 163.088C166.612 162.184 167.031 161.125 167.165 160.014C167.231 159.376 167.247 158.735 167.212 158.095C167.187 157.407 167.052 156.728 166.813 156.083C166.411 154.976 165.72 153.997 164.812 153.247C163.904 152.497 162.813 152.004 161.65 151.817C160.775 151.725 159.895 151.696 159.016 151.729L102.4 151.776C101.726 151.787 101.057 151.889 100.411 152.081C99.7748 152.294 99.1723 152.596 98.6216 152.979C97.5425 153.754 96.7241 154.838 96.2748 156.089C95.4828 158.559 95.7409 161.539 97.4482 163.452C98.279 164.414 99.3714 165.116 100.593 165.47C101.766 165.834 103.075 165.699 104.33 165.728H111.687L137.138 165.757L154.299 165.81H158.992L154.299 165.839L137.138 165.886L111.687 165.922H102.447C101.796 165.916 101.149 165.826 100.522 165.652C99.2315 165.281 98.0776 164.54 97.2037 163.52C96.3298 162.5 95.7743 161.246 95.606 159.914C95.5376 159.241 95.5219 158.565 95.559 157.89C95.5876 157.202 95.7242 156.523 95.9639 155.877C96.4437 154.562 97.3136 153.424 98.4573 152.615C99.0335 152.217 99.6637 151.903 100.329 151.682C101.005 151.479 101.706 151.37 102.412 151.36L159.028 151.401C159.923 151.401 160.817 151.468 161.703 151.6C162.897 151.796 164.017 152.309 164.946 153.085C165.875 153.861 166.578 154.872 166.983 156.012C167.84 158.805 167.335 161.533 166.056 163.146C165.119 164.423 163.76 165.325 162.219 165.693C161.99 165.752 161.757 165.793 161.521 165.816C161.353 165.845 161.182 165.859 161.011 165.857C160.735 165.88 160.594 165.875 160.594 165.875Z" fill="#263238"/>
<path d="M102.617 229.813V234.6C102.617 234.694 102.591 234.787 102.543 234.868C102.495 234.949 102.426 235.016 102.344 235.062C102.261 235.107 102.168 235.13 102.073 235.127C101.979 235.124 101.887 235.096 101.807 235.046L98.0407 232.652C97.9669 232.604 97.9063 232.537 97.8644 232.46C97.8224 232.382 97.8005 232.295 97.8005 232.206C97.8005 232.118 97.8224 232.031 97.8644 231.953C97.9063 231.875 97.9669 231.809 98.0407 231.76L101.807 229.367C101.887 229.316 101.979 229.288 102.073 229.286C102.168 229.283 102.261 229.305 102.344 229.351C102.426 229.396 102.495 229.463 102.543 229.544C102.591 229.626 102.617 229.718 102.617 229.813Z" fill="#E0E0E0"/>
<path d="M133.542 232.159C133.541 232.812 133.346 233.45 132.982 233.993C132.619 234.535 132.102 234.958 131.499 235.207C130.895 235.456 130.231 235.52 129.591 235.392C128.95 235.264 128.362 234.949 127.901 234.487C127.44 234.025 127.126 233.436 126.999 232.796C126.872 232.155 126.937 231.491 127.188 230.888C127.438 230.285 127.861 229.769 128.404 229.407C128.947 229.044 129.586 228.85 130.239 228.85C130.673 228.85 131.103 228.936 131.504 229.102C131.905 229.269 132.27 229.513 132.576 229.82C132.883 230.127 133.126 230.492 133.292 230.893C133.458 231.295 133.543 231.725 133.542 232.159Z" fill="#E0E0E0"/>
<path d="M162.26 229.284H158.365C157.759 229.284 157.268 229.776 157.268 230.382V234.295C157.268 234.901 157.759 235.392 158.365 235.392H162.26C162.866 235.392 163.358 234.901 163.358 234.295V230.382C163.358 229.776 162.866 229.284 162.26 229.284Z" fill="#E0E0E0"/>
<path d="M232.429 150.949C232.77 148.546 232.903 146.118 232.828 143.692C232.749 141.255 232.066 138.876 230.839 136.769C230.646 136.458 229.114 134.422 228.762 134.516C228.51 134.592 229.601 136.569 229.513 136.822C228.789 139.242 228.813 141.825 229.584 144.231C230.278 146.57 231.233 148.823 232.429 150.949Z" fill="#263238"/>
<path d="M221.763 166.854C221.405 165.176 221.118 163.856 221.106 163.862C221.094 163.868 215.239 164.449 213.69 158.811C212.951 156.089 211.883 150.362 210.974 145.17C210.503 142.477 211.064 139.705 212.545 137.407C214.026 135.109 216.318 133.452 218.965 132.767L219.51 132.627C225.477 131.453 229.813 135.859 230.828 141.855L235.04 162.701L225.776 172.528L221.763 166.854Z" fill="#FFBE9D"/>
<path d="M221.106 163.833C223.717 163.142 226.074 161.717 227.9 159.726C227.9 159.726 227.219 164.379 221.446 165.329L221.106 163.833Z" fill="#EB996E"/>
<path d="M213.919 149.611C213.977 149.818 214.112 149.994 214.297 150.104C214.482 150.213 214.701 150.247 214.91 150.198C215.015 150.18 215.116 150.141 215.205 150.083C215.294 150.025 215.371 149.95 215.431 149.862C215.491 149.774 215.532 149.674 215.552 149.57C215.573 149.465 215.572 149.358 215.55 149.254C215.493 149.047 215.359 148.871 215.175 148.762C214.992 148.652 214.773 148.618 214.564 148.667C214.459 148.685 214.359 148.724 214.269 148.782C214.18 148.84 214.102 148.915 214.042 149.003C213.982 149.091 213.94 149.19 213.919 149.295C213.898 149.399 213.898 149.507 213.919 149.611Z" fill="#263238"/>
<path d="M212.787 147.171C212.916 147.253 213.408 146.643 214.277 146.42C215.145 146.197 215.896 146.467 215.966 146.332C216.037 146.197 215.849 146.109 215.515 145.98C215.073 145.817 214.591 145.795 214.136 145.915C213.678 146.031 213.267 146.287 212.963 146.649C212.745 146.907 212.745 147.136 212.787 147.171Z" fill="#263238"/>
<path d="M221.775 148.039C221.833 148.246 221.968 148.422 222.153 148.532C222.337 148.641 222.557 148.675 222.766 148.626C222.871 148.608 222.971 148.57 223.061 148.513C223.151 148.456 223.228 148.381 223.288 148.293C223.348 148.206 223.39 148.107 223.411 148.003C223.433 147.899 223.433 147.791 223.412 147.687C223.359 147.476 223.226 147.293 223.041 147.178C222.856 147.063 222.633 147.025 222.42 147.071C222.313 147.09 222.211 147.13 222.12 147.19C222.029 147.249 221.95 147.326 221.89 147.417C221.83 147.507 221.788 147.609 221.769 147.716C221.749 147.823 221.751 147.933 221.775 148.039Z" fill="#263238"/>
<path d="M221.388 145.317C221.517 145.399 222.009 144.789 222.878 144.566C223.746 144.343 224.497 144.613 224.562 144.484C224.626 144.355 224.444 144.261 224.116 144.132C223.673 143.964 223.188 143.941 222.731 144.067C222.272 144.177 221.86 144.432 221.558 144.795C221.37 145.07 221.323 145.287 221.388 145.317Z" fill="#263238"/>
<path d="M220.003 152.774C219.507 152.754 219.011 152.791 218.524 152.885C218.296 152.92 218.073 152.932 217.996 152.791C217.928 152.564 217.928 152.321 217.996 152.093C218.067 151.506 218.143 150.885 218.219 150.233C218.507 147.593 218.654 145.446 218.548 145.44C218.442 145.434 218.12 147.558 217.832 150.198C217.768 150.849 217.703 151.465 217.644 152.058C217.575 152.363 217.615 152.682 217.756 152.961C217.809 153.03 217.876 153.086 217.953 153.126C218.03 153.165 218.115 153.187 218.202 153.19C218.334 153.192 218.466 153.176 218.595 153.143C219.078 153.08 219.551 152.955 220.003 152.774Z" fill="#263238"/>
<path d="M222.719 152.739C222.573 152.768 222.819 153.712 222.185 154.587C221.552 155.461 220.519 155.625 220.549 155.76C220.578 155.895 220.818 155.889 221.247 155.789C221.799 155.652 222.287 155.326 222.625 154.868C222.95 154.426 223.089 153.874 223.013 153.331C222.942 152.92 222.772 152.715 222.719 152.739Z" fill="#263238"/>
<path d="M220.519 141.785C220.666 141.996 221.505 141.662 222.555 141.521C223.605 141.38 224.503 141.445 224.585 141.198C224.62 141.081 224.415 140.893 224.028 140.752C223.512 140.58 222.963 140.534 222.426 140.617C221.888 140.693 221.376 140.894 220.93 141.204C220.596 141.445 220.455 141.679 220.519 141.785Z" fill="#263238"/>
<path d="M212.399 144.19C212.605 144.349 213.15 143.991 213.866 143.791C214.582 143.592 215.227 143.58 215.315 143.34C215.35 143.222 215.204 143.052 214.887 142.935C214.472 142.801 214.026 142.795 213.608 142.917C213.19 143.04 212.818 143.285 212.54 143.621C212.341 143.891 212.305 144.114 212.399 144.19Z" fill="#263238"/>
<path d="M231.449 146.132C231.538 146.068 235.034 143.979 235.914 147.892C236.794 151.806 232.699 151.864 232.664 151.753C232.629 151.641 231.449 146.132 231.449 146.132Z" fill="#FFBE9D"/>
<path d="M233.52 149.993C233.52 149.993 233.602 150.022 233.726 150.052C233.903 150.083 234.086 150.045 234.236 149.946C234.453 149.731 234.609 149.462 234.686 149.167C234.763 148.872 234.76 148.561 234.676 148.268C234.609 147.931 234.469 147.612 234.265 147.335C234.202 147.221 234.112 147.125 234.002 147.054C233.893 146.983 233.768 146.941 233.638 146.93C233.555 146.928 233.475 146.954 233.41 147.005C233.345 147.055 233.299 147.126 233.28 147.206C233.25 147.329 233.28 147.4 233.28 147.411C233.28 147.423 233.18 147.364 233.18 147.194C233.177 147.09 233.213 146.988 233.28 146.907C233.324 146.854 233.379 146.811 233.44 146.78C233.502 146.748 233.569 146.73 233.638 146.725C233.804 146.72 233.969 146.758 234.117 146.835C234.265 146.912 234.391 147.026 234.482 147.165C234.723 147.465 234.886 147.82 234.958 148.198C235.11 148.99 234.876 149.817 234.371 150.104C234.274 150.16 234.165 150.192 234.052 150.198C233.94 150.204 233.829 150.184 233.726 150.14C233.55 150.087 233.509 150.005 233.52 149.993Z" fill="#EB996E"/>
<path d="M212.1 138.106C211.396 137.895 212.851 135.437 214.248 134.398C216.365 132.826 219.809 131.395 222.103 131.541C224.867 131.717 227.307 132.55 229.144 134.633C230.923 136.777 232.101 139.354 232.558 142.102C232.767 142.925 232.755 143.789 232.523 144.607C232.165 145.587 231.232 146.367 231.537 147.54C231.599 147.753 231.617 147.975 231.592 148.195C231.567 148.414 231.498 148.626 231.391 148.819C230.839 149.735 229.813 149.212 229.255 148.579C228.082 147.235 227.577 145.434 227.125 143.698C226.734 142.481 226.546 141.209 226.568 139.931C226.621 139.239 226.791 138.558 226.809 137.866C226.836 137.519 226.787 137.171 226.667 136.845C226.546 136.519 226.356 136.222 226.11 135.977C225.988 135.883 225.858 135.799 225.723 135.724C225.076 135.367 224.345 135.188 223.606 135.207C222.866 135.226 222.145 135.441 221.517 135.83C219.487 137.08 215.984 139.051 214.846 138.517C214.046 138.206 213.32 137.73 212.716 137.121L212.1 138.106Z" fill="#263238"/>
<path d="M221.258 129.394C221.528 129.365 228.135 129.195 230.874 133.454C233.614 137.713 233.514 139.256 233.514 139.256C233.798 139.349 234.066 139.482 234.312 139.649C234.647 139.89 234.641 141.456 233.784 141.498C226.996 140.324 219.704 141.896 211.719 144.179L205.535 145.663C203.863 146.303 203.141 145.997 203.775 145.376C204.25 144.906 208.65 141.703 208.65 141.703L209.431 140.752L211.085 136.581C211.085 136.581 210.645 136.17 211.167 135.607C211.689 135.044 215.984 129.975 221.258 129.394Z" fill="#CCE0FF"/>
<path d="M209.413 140.752C209.495 140.739 209.575 140.719 209.654 140.694L210.34 140.506C210.927 140.33 211.795 140.119 212.869 139.872C215.674 139.268 218.526 138.909 221.394 138.799C224.262 138.7 227.133 138.763 229.994 138.986C231.097 139.063 231.983 139.145 232.599 139.198L233.303 139.256H233.55L233.309 139.221L232.599 139.145C232.013 139.08 231.103 138.986 230 138.904C227.139 138.652 224.264 138.577 221.394 138.681C218.519 138.79 215.659 139.159 212.851 139.784C210.704 140.301 209.413 140.752 209.413 140.752Z" fill="#263238"/>
<g opacity="0.3">
<path d="M227.659 130.691C227.659 130.691 220.648 131.277 218.002 133.518L218.307 133.254L215.773 135.232C215.586 135.427 215.358 135.578 215.105 135.675C214.853 135.771 214.582 135.81 214.312 135.789C215.338 134.427 216.609 133.269 218.061 132.374C220.637 130.708 225.007 129.165 227.659 130.691Z" fill="black"/>
</g>
<path d="M227.765 130.702C227.536 130.605 227.301 130.525 227.061 130.462C226.409 130.278 225.737 130.172 225.06 130.145C224.053 130.106 223.045 130.212 222.068 130.462C220.862 130.742 219.73 131.276 218.747 132.028C218.251 132.43 217.781 132.863 217.339 133.325C216.911 133.765 216.477 134.17 216.101 134.598C215.773 135.022 215.405 135.415 215.004 135.771C214.643 136.057 214.222 136.257 213.772 136.358C212.124 136.798 211.021 136.71 211.068 136.587C211.086 136.614 211.111 136.637 211.139 136.654C211.167 136.671 211.199 136.682 211.232 136.687C211.413 136.726 211.598 136.739 211.783 136.728C212.461 136.702 213.134 136.601 213.79 136.428C214.254 136.335 214.69 136.134 215.063 135.842C215.468 135.484 215.841 135.092 216.178 134.668C216.547 134.252 216.987 133.841 217.416 133.401C217.854 132.947 218.321 132.519 218.812 132.122C219.783 131.377 220.901 130.846 222.092 130.561C223.058 130.31 224.056 130.197 225.054 130.227C225.73 130.246 226.401 130.341 227.055 130.509L227.583 130.655C227.642 130.675 227.703 130.691 227.765 130.702Z" fill="#263238"/>
<g opacity="0.3">
<path d="M231.948 135.249C230.805 135.46 229.643 135.546 228.481 135.507C227.131 135.549 225.811 135.648 224.462 135.631C223.441 135.631 222.25 135.672 221.452 135.138C221.468 135.382 221.546 135.617 221.679 135.823C221.811 136.028 221.994 136.196 222.209 136.311C222.941 136.565 223.71 136.696 224.485 136.698C227.164 136.838 229.849 136.682 232.494 136.235C232.336 135.886 232.154 135.549 231.948 135.226" fill="black"/>
</g>
<path d="M230.552 132.99C231.397 133.131 231.925 133.237 232.112 133.882C232.265 134.416 232.324 135.108 231.813 135.337C231.654 135.399 231.485 135.429 231.314 135.425L222.555 135.859C222.26 135.91 221.956 135.854 221.699 135.701C221.539 135.538 221.45 135.319 221.45 135.091C221.45 134.863 221.539 134.644 221.699 134.481C222.034 134.172 222.452 133.969 222.901 133.894C225.392 133.258 227.958 132.96 230.528 133.008" fill="#CCE0FF"/>
<path d="M221.857 135.789C221.726 135.717 221.617 135.612 221.54 135.484C221.447 135.306 221.404 135.105 221.418 134.904C221.431 134.703 221.5 134.51 221.616 134.346C222.039 133.908 222.597 133.626 223.2 133.548C223.875 133.413 224.626 133.272 225.412 133.155C226.756 132.935 228.117 132.837 229.478 132.861C230 132.861 230.417 132.908 230.71 132.932L231.045 132.967H231.162L231.05 132.938L230.716 132.885C230.423 132.85 230 132.797 229.478 132.779C228.104 132.732 226.728 132.821 225.371 133.043C224.585 133.161 223.834 133.307 223.159 133.448C222.536 133.533 221.962 133.831 221.534 134.293C221.411 134.468 221.341 134.675 221.332 134.889C221.323 135.104 221.374 135.316 221.481 135.501C221.543 135.599 221.627 135.68 221.728 135.736L221.857 135.789Z" fill="#263238"/>
<path d="M210.551 137.889L215.761 136.452L215.697 138.042L209.965 139.368L210.551 137.889Z" fill="white"/>
<path d="M219.657 140.535C219.657 140.506 217.234 140.764 214.248 141.122C211.261 141.48 208.85 141.779 208.85 141.808C208.85 141.838 211.279 141.58 214.259 141.222C217.24 140.864 219.663 140.565 219.657 140.535Z" fill="#263238"/>
<path d="M204.602 172.528L209.883 185.341L212.229 175.49C212.71 173.592 213.66 171.845 214.993 170.41C215.463 169.915 215.973 169.46 216.518 169.049L220.666 188.046C220.666 188.046 217.146 198.864 208.785 199.117C206.357 199.187 202.654 197.644 201.499 194.939C200.912 193.602 193.479 175.954 193.479 175.954L204.602 172.528Z" fill="#E0E0E0"/>
<path d="M206.861 182.771L207.16 180.876L200.935 175.596L199.832 176.834L196.283 180.9L209.695 191.777L212.927 187.893L206.861 182.771Z" fill="#263238"/>
<path d="M257.152 206.509C257.328 203.869 254.125 173.654 254.125 173.654L247.255 163.504L234.154 161.199C233.955 162.794 232.928 166.96 227.524 168.497C224.743 169.289 221.722 166.514 221.722 166.514L216.518 169.043L218.495 183.194L221.047 199.34L257.287 209.642C257.287 209.642 256.976 209.155 257.152 206.509Z" fill="#E0E0E0"/>
<path d="M222.672 201.018L221.047 181.539L239.997 177.702L257.029 202.907L257.528 211.519L231.338 210.704L222.672 201.018Z" fill="#CCE0FF"/>
<path d="M217.779 175.708C217.881 176.005 217.954 176.311 217.996 176.623C218.12 177.21 218.272 178.078 218.448 179.14C218.794 181.275 219.182 184.238 219.569 187.512C219.956 190.786 220.302 193.743 220.596 195.884C220.742 196.911 220.86 197.761 220.948 198.413C221.008 198.72 221.041 199.032 221.047 199.346C220.953 199.046 220.88 198.74 220.83 198.43C220.707 197.844 220.554 196.981 220.384 195.913C220.032 193.778 219.645 190.821 219.264 187.547C218.882 184.273 218.524 181.311 218.231 179.175C218.09 178.148 217.973 177.292 217.879 176.64C217.823 176.332 217.789 176.021 217.779 175.708Z" fill="#263238"/>
<path d="M206.879 182.736C206.879 182.736 209.419 183.059 210.311 183.522C211.203 183.986 213.802 185.705 213.802 185.705L219.035 186.696L217.785 195.344L214.265 193.584L206.544 194.353C206.544 194.353 204.86 193.966 204.86 192.763C204.459 192.519 204.117 192.19 203.859 191.798C203.6 191.407 203.431 190.963 203.364 190.498C202.554 189.463 201.802 188.384 201.111 187.265C200.924 186.743 201.974 185.505 201.974 185.505C201.974 185.505 204.18 187.377 205.494 187.67C206.808 187.964 208.046 187.436 208.163 186.573C208.427 184.842 206.879 182.736 206.879 182.736Z" fill="#FFBE9D"/>
<g opacity="0.3">
<path d="M220.76 197.656C220.76 197.656 238.361 203.957 244.228 203.581C249.22 203.265 251.679 200.924 252.077 197.656C252.476 194.388 253.022 180.489 253.022 180.489L243.606 196.84L220.666 196.119L220.76 197.656Z" fill="black"/>
</g>
<path d="M249.297 196.776C250.564 193.162 251.954 186.215 251.954 186.215L254.143 174.64C254.221 171.622 253.208 168.676 251.291 166.344C249.854 164.619 247.842 163.146 245.155 163.158C239.47 163.158 239.669 173.666 239.669 173.666L238.12 188.679L215.861 185.042L214.447 195.743L240.625 201.393C241.726 201.668 242.874 201.7 243.989 201.486C245.103 201.272 246.158 200.818 247.079 200.155C248.143 199.279 248.917 198.101 249.297 196.776Z" fill="#E0E0E0"/>
<path d="M245.782 164.079C245.782 164.126 245.331 164.15 244.638 164.337C243.73 164.571 242.887 165.009 242.175 165.62C241.463 166.23 240.901 166.996 240.532 167.858C240.244 168.521 240.156 168.966 240.109 168.961C240.088 168.558 240.162 168.156 240.326 167.787C240.657 166.864 241.221 166.041 241.963 165.4C242.705 164.758 243.6 164.32 244.562 164.126C244.959 164.013 245.378 163.997 245.782 164.079Z" fill="#263238"/>
<path d="M254.143 174.634C254.143 174.634 254.143 174.734 254.108 174.916C254.072 175.097 254.025 175.379 253.967 175.725L253.409 178.846C253.157 180.202 252.852 181.862 252.5 183.781C252.148 185.699 251.731 187.887 251.174 190.287C250.898 191.49 250.587 192.745 250.247 194.042C250.077 194.693 249.883 195.35 249.66 196.019C249.458 196.709 249.201 197.382 248.892 198.031C248.572 198.712 248.132 199.33 247.595 199.856C247.021 200.377 246.365 200.799 245.653 201.106C244.158 201.742 242.507 201.916 240.913 201.604L220.214 197.151L214.4 195.896L214.259 195.866V195.731C214.746 192.035 215.221 188.456 215.673 185.024V184.878H215.82L238.138 188.562L238.015 188.656C238.513 184.003 238.918 180.254 239.188 177.655C239.329 176.376 239.446 175.379 239.522 174.687C239.563 174.358 239.593 174.1 239.616 173.918C239.64 173.736 239.657 173.654 239.657 173.654C239.657 173.654 239.657 173.748 239.657 173.918C239.657 174.088 239.622 174.364 239.593 174.693C239.528 175.385 239.434 176.382 239.311 177.667C239.059 180.272 238.683 184.021 238.226 188.679V188.791H238.114L215.82 185.2L215.984 185.077C215.538 188.503 215.069 192.082 214.582 195.778L214.506 195.602L220.32 196.852L241.007 201.329C242.545 201.635 244.139 201.471 245.583 200.859C246.27 200.579 246.903 200.182 247.454 199.686C247.975 199.179 248.4 198.583 248.71 197.926C249.012 197.289 249.265 196.63 249.467 195.954C249.672 195.291 249.866 194.634 250.053 193.989C250.411 192.692 250.716 191.443 250.998 190.246C251.585 187.852 252.007 185.676 252.365 183.751C252.723 181.827 253.063 180.184 253.327 178.829C253.591 177.474 253.797 176.447 253.943 175.719C254.014 175.379 254.072 175.133 254.113 174.916C254.154 174.698 254.143 174.634 254.143 174.634Z" fill="#263238"/>
<path d="M240.707 192.481C240.138 191.886 239.639 191.227 239.223 190.516C238.848 189.929 238.525 189.407 238.296 189.055C238.165 188.871 237.984 188.728 237.774 188.644C237.774 188.644 237.844 188.591 237.985 188.615C238.171 188.665 238.337 188.771 238.46 188.92C238.823 189.377 239.162 189.853 239.475 190.346C239.972 191.004 240.386 191.721 240.707 192.481Z" fill="#263238"/>
<path d="M236.9 178.735C236.9 178.735 232.94 168.691 237.07 163.78C237.553 163.218 238.162 162.779 238.847 162.497C239.532 162.216 240.274 162.1 241.013 162.161C242.315 162.261 244.046 162.513 245.155 163.152C245.155 163.152 241.635 162.525 240.174 164.079C239.094 165.253 236.495 168.955 239.235 177.855L236.9 178.735Z" fill="#CCE0FF"/>
<path d="M221.118 182.009L217.081 168.773C217.314 168.351 217.675 168.014 218.111 167.809C218.547 167.605 219.037 167.544 219.51 167.635L223.406 182.009H221.118Z" fill="#CCE0FF"/>
<path d="M207.958 186.691C207.905 186.755 205.717 185.107 203.065 183.006C201.436 181.779 199.87 180.471 198.372 179.087C198.424 179.023 200.613 180.671 203.265 182.771C204.894 183.999 206.46 185.307 207.958 186.691Z" fill="#455A64"/>
<path d="M197.433 179.586L196.23 178.477L196.805 177.767L198.201 178.706L197.433 179.586Z" fill="#455A64"/>
<path d="M186.121 162.278C185.987 161.755 186.061 161.2 186.328 160.73C186.595 160.261 187.034 159.913 187.553 159.761C189.735 159.116 193.103 158.312 194.006 159.175C195.397 160.448 198.7 163.528 198.7 163.528L203.288 173.05L195.86 175.238L193.748 167.993C193.748 167.993 190.369 168.174 190.668 166.362C190.668 166.362 188.978 165.699 189.219 164.672C189.46 163.645 190.85 163.405 190.85 163.405L190.551 161.592L186.11 162.372L186.121 162.278Z" fill="#FFBE9D"/>
<path d="M189.776 164.795H186.033V160.401H189.776C190.362 160.401 190.923 160.633 191.336 161.047C191.75 161.461 191.982 162.022 191.982 162.607C191.976 163.188 191.741 163.744 191.328 164.154C190.916 164.563 190.358 164.794 189.776 164.795Z" fill="#455A64"/>
<path d="M192.628 162.507L187.007 161.058C187.007 161.058 185.499 160.635 186.286 162.267C187.072 163.898 189.424 163.534 190.328 164.502C191.231 165.47 191.748 167.101 195.497 167.705" fill="#FFBE9D"/>
<path d="M195.497 167.705C195.246 167.705 194.996 167.677 194.752 167.623C194.08 167.5 193.428 167.291 192.81 167.001C192.384 166.793 191.989 166.526 191.636 166.209C191.243 165.836 190.886 165.428 190.569 164.989C189.982 163.974 188.597 164.027 187.377 163.469C187.065 163.328 186.782 163.129 186.544 162.882C186.322 162.634 186.148 162.345 186.033 162.032C185.974 161.875 185.937 161.711 185.922 161.545C185.915 161.448 185.929 161.352 185.963 161.261C185.998 161.171 186.052 161.09 186.121 161.023C186.265 160.934 186.427 160.88 186.595 160.864C186.762 160.848 186.932 160.87 187.089 160.929L189.988 161.709L191.936 162.261C192.177 162.318 192.413 162.399 192.64 162.501C192.391 162.489 192.145 162.448 191.906 162.378L189.929 161.914L186.996 161.199C186.883 161.157 186.762 161.139 186.641 161.147C186.521 161.155 186.404 161.189 186.297 161.246C186.151 161.357 186.192 161.662 186.297 161.926C186.399 162.201 186.55 162.456 186.743 162.677C186.961 162.888 187.213 163.061 187.488 163.188C188.073 163.418 188.67 163.614 189.278 163.774C189.583 163.859 189.874 163.99 190.14 164.161C190.381 164.345 190.593 164.565 190.768 164.813C191.072 165.245 191.414 165.649 191.789 166.021C192.124 166.329 192.497 166.593 192.898 166.807C193.736 167.184 194.605 167.484 195.497 167.705Z" fill="#EB996E"/>
<path d="M195.145 195.08C194.481 195.061 193.833 194.872 193.262 194.532C192.691 194.192 192.217 193.713 191.883 193.138C191.451 192.357 191.205 191.486 191.164 190.593C191.123 189.701 191.289 188.811 191.648 187.993C191.695 187.887 191.742 187.776 191.795 187.676L191.742 187.541C191.403 186.549 191.224 185.51 191.214 184.461C191.003 181.023 190.803 177.826 190.627 174.634C190.451 171.442 190.24 168.227 190.04 164.783H190.334C190.545 168.227 190.744 171.431 190.92 174.634C191.096 177.837 191.308 181.023 191.507 184.461C191.514 185.458 191.675 186.447 191.982 187.395C192.342 186.727 192.952 186.229 193.678 186.01C193.931 185.954 194.193 185.953 194.447 186.005C194.701 186.058 194.94 186.164 195.151 186.315C195.355 186.454 195.526 186.635 195.653 186.847C195.779 187.059 195.858 187.296 195.884 187.541C195.901 187.804 195.862 188.068 195.77 188.314C195.678 188.561 195.534 188.785 195.349 188.973C195.164 189.16 194.941 189.306 194.696 189.401C194.45 189.496 194.187 189.538 193.924 189.524C193.503 189.454 193.105 189.282 192.764 189.025C192.423 188.768 192.149 188.432 191.965 188.046L191.918 188.151C191.577 188.926 191.418 189.768 191.455 190.614C191.491 191.459 191.722 192.285 192.129 193.027C192.503 193.705 193.094 194.236 193.808 194.535C194.521 194.835 195.315 194.884 196.06 194.676C197.427 194.183 198.495 192.534 198.653 190.657C198.725 188.879 198.32 187.115 197.48 185.547C197.104 184.76 196.67 183.992 196.254 183.247C195.837 182.502 195.385 181.698 195.004 180.9C194.686 180.316 194.504 179.669 194.47 179.005C194.448 178.663 194.526 178.322 194.695 178.024C194.864 177.726 195.116 177.484 195.42 177.327C195.586 177.273 195.762 177.261 195.933 177.29C196.105 177.32 196.266 177.391 196.404 177.498C196.542 177.604 196.651 177.742 196.723 177.901C196.795 178.059 196.827 178.233 196.817 178.406H196.529C196.537 178.282 196.513 178.157 196.46 178.045C196.406 177.932 196.325 177.834 196.224 177.761C196.128 177.683 196.014 177.63 195.892 177.607C195.77 177.583 195.645 177.59 195.526 177.626C195.28 177.766 195.077 177.972 194.942 178.221C194.807 178.47 194.745 178.752 194.763 179.034C194.801 179.651 194.974 180.251 195.268 180.794C195.643 181.598 196.083 182.378 196.512 183.141C196.94 183.904 197.362 184.661 197.744 185.459C198.603 187.081 199.008 188.905 198.917 190.739C198.776 192.417 197.861 194.388 196.136 195.01C195.812 195.088 195.477 195.112 195.145 195.08ZM192.123 187.682C192.279 188.066 192.528 188.406 192.847 188.67C193.167 188.935 193.547 189.115 193.954 189.196C194.172 189.206 194.39 189.169 194.593 189.087C194.795 189.005 194.978 188.88 195.127 188.721C195.285 188.571 195.408 188.388 195.486 188.185C195.564 187.982 195.596 187.764 195.579 187.547C195.56 187.346 195.497 187.151 195.396 186.976C195.295 186.801 195.157 186.649 194.992 186.532C194.817 186.403 194.617 186.313 194.405 186.268C194.192 186.222 193.972 186.222 193.76 186.268C193.409 186.383 193.085 186.567 192.806 186.81C192.528 187.053 192.302 187.35 192.141 187.682H192.123Z" fill="#455A64"/>
<path d="M229.314 249.044L242.878 244.404C242.878 244.404 252.148 256.619 254.741 256.032L246.692 229.396L225.254 235.756L229.314 249.044Z" fill="#455A64"/>
<path d="M239.235 236.519C239.235 236.238 239.338 235.968 239.526 235.76C239.713 235.552 239.971 235.421 240.25 235.392C240.529 235.382 240.801 235.479 241.01 235.663C241.22 235.848 241.351 236.106 241.376 236.384C241.371 236.677 241.258 236.959 241.059 237.175C240.86 237.391 240.589 237.527 240.297 237.557C240.003 237.537 239.728 237.404 239.53 237.185C239.333 236.966 239.229 236.678 239.241 236.384" fill="#E0E0E0"/>
<path d="M247.243 229.208L245.166 229.795L253.069 255.351C253.069 255.351 253.949 256.384 254.741 255.997L247.243 229.208Z" fill="#E0E0E0"/>
<path d="M242.872 244.885C243.001 244.844 242.872 244.175 243.089 243.412C243.306 242.649 243.758 242.139 243.676 242.033C243.594 241.928 242.896 242.35 242.638 243.283C242.379 244.216 242.761 244.938 242.872 244.885Z" fill="#263238"/>
<path d="M244.873 247.32C245.008 247.32 245.061 246.68 245.46 246.07C245.859 245.46 246.416 245.16 246.375 245.031C246.334 244.902 245.565 245.031 245.061 245.812C244.556 246.592 244.75 247.355 244.873 247.32Z" fill="#263238"/>
<path d="M248.692 247.895C248.692 247.765 247.982 247.783 247.372 248.335C246.762 248.886 246.662 249.572 246.786 249.596C246.909 249.619 247.179 249.127 247.689 248.687C248.199 248.247 248.722 248.029 248.692 247.895Z" fill="#263238"/>
<path d="M239.663 245.589C239.769 245.501 239.405 244.955 239.235 244.204C239.065 243.453 239.123 242.814 238.989 242.779C238.854 242.743 238.56 243.436 238.777 244.316C238.994 245.196 239.581 245.683 239.663 245.589Z" fill="#263238"/>
<path d="M227.665 212.869C227.143 212.728 204.168 237.369 203.646 241.447C203.124 245.524 203.957 249.074 206.673 251.362C209.39 253.65 240.297 246.14 240.297 246.14L237.363 233.192L248.511 229.437L238.537 211.162L227.665 212.869Z" fill="#CCE0FF"/>
<g opacity="0.3">
<path d="M222.226 218.331L221.493 219.123C221.493 219.123 234.659 232.94 238.701 232.746L245.154 230.558L223.306 217.134L222.226 218.331Z" fill="black"/>
</g>
<path d="M237.451 233.532C237.451 233.614 232.681 235.093 226.75 236.835C220.818 238.578 215.978 239.927 215.955 239.845C215.931 239.763 220.725 238.29 226.662 236.542C232.599 234.794 237.428 233.45 237.451 233.532Z" fill="#263238"/>
<path d="M208.762 234.958L213.227 249.121C213.227 249.121 200.319 258.42 200.906 261.119L228.686 253.445L222.637 231.086L208.762 234.958Z" fill="#455A64"/>
<path d="M221.482 245.548C221.771 245.554 222.048 245.667 222.259 245.865C222.471 246.063 222.601 246.333 222.626 246.621C222.637 246.917 222.532 247.205 222.334 247.424C222.135 247.644 221.859 247.777 221.564 247.795C221.258 247.778 220.969 247.649 220.753 247.432C220.536 247.216 220.407 246.927 220.39 246.621C220.431 246.035 221.059 245.448 221.622 245.559" fill="#E0E0E0"/>
<path d="M228.856 254.025L228.27 251.855L201.598 259.405C201.598 259.405 200.507 260.285 200.889 261.119L228.856 254.025Z" fill="#E0E0E0"/>
<path d="M212.746 249.103C212.792 249.238 213.485 249.103 214.271 249.367C215.057 249.631 215.573 250.089 215.685 250.001C215.796 249.913 215.374 249.185 214.418 248.898C213.461 248.61 212.675 248.992 212.746 249.103Z" fill="#263238"/>
<path d="M210.158 251.115C210.158 251.256 210.809 251.321 211.431 251.767C212.053 252.213 212.352 252.787 212.482 252.741C212.611 252.694 212.482 251.907 211.713 251.368C210.944 250.828 210.123 250.986 210.158 251.115Z" fill="#263238"/>
<path d="M209.466 255.058C209.595 255.058 209.595 254.325 209.043 253.679C208.492 253.034 207.776 252.911 207.747 253.04C207.718 253.169 208.222 253.456 208.668 253.996C209.114 254.536 209.325 255.081 209.466 255.058Z" fill="#263238"/>
<path d="M212.077 245.765C212.165 245.87 212.74 245.513 213.52 245.354C214.3 245.196 214.963 245.272 215.004 245.131C215.045 244.99 214.336 244.674 213.414 244.873C212.493 245.073 211.983 245.677 212.077 245.765Z" fill="#263238"/>
<g opacity="0.3">
<path d="M228.874 248.722L227.161 242.004L228.44 241.412L220.666 220.255L219.182 221.546L225.289 240.925L227.477 249.015L228.874 248.722Z" fill="black"/>
</g>
<path d="M210.534 196.353C209.027 196.03 207.468 196.03 205.961 196.353C204.454 196.677 203.033 197.317 201.792 198.231C200.537 199.114 199.562 200.34 198.984 201.762C198.405 203.184 198.248 204.742 198.53 206.251C199.78 215.051 210.991 244.973 210.991 244.973L226.503 240.308C226.591 240.308 226.679 240.027 226.627 240.103C226.503 240.308 218.759 215.368 218.953 215.661C219.146 215.955 234.606 228.457 241.024 230.722C243.897 231.764 247.03 231.854 249.958 230.98C252.887 230.105 255.456 228.311 257.287 225.864C258.789 223.764 258.895 214.529 257.287 209.648C257.287 209.648 212.523 196.958 211.684 196.647C211.307 196.524 210.923 196.426 210.534 196.353Z" fill="#CCE0FF"/>
<path d="M209.9 205.482C212.378 207.155 214.471 209.337 216.039 211.882C217.607 214.428 218.614 217.278 218.994 220.244" fill="#CCE0FF"/>
<path d="M257.921 225.559L257.733 225.858C257.539 226.141 257.33 226.414 257.106 226.674C256.213 227.669 255.184 228.532 254.049 229.238C252.246 230.39 250.225 231.159 248.112 231.496C246.782 231.712 245.428 231.73 244.093 231.549C242.585 231.367 241.121 230.926 239.763 230.247C239.024 229.936 238.326 229.513 237.58 229.132C236.835 228.751 236.108 228.293 235.369 227.824C233.886 226.904 232.365 225.903 230.804 224.82C227.675 222.661 224.421 220.232 221.042 217.533L219.774 216.506L219.141 215.978L218.97 215.82L218.888 215.744C218.941 215.744 218.742 215.673 219 215.779C219.205 215.562 219.058 215.673 219.105 215.65V215.691L219.217 216.09C219.545 217.146 219.874 218.219 220.214 219.311C220.903 221.481 221.605 223.705 222.321 225.981C223.776 230.534 225.289 235.286 226.856 240.197L226.903 240.338L226.756 240.385L211.05 245.114L210.909 245.155L210.862 245.02C209.859 242.333 208.821 239.475 207.782 236.571C205.529 230.27 203.388 224.098 201.505 218.073C200.56 215.063 199.68 212.088 198.976 209.126C198.888 208.756 198.788 208.392 198.718 208.017C198.647 207.641 198.583 207.272 198.512 206.902C198.358 206.163 198.285 205.41 198.295 204.655C198.298 203.152 198.729 201.68 199.539 200.413C200.359 199.234 201.418 198.24 202.647 197.497C203.876 196.754 205.248 196.279 206.673 196.101C208.041 195.904 209.433 195.962 210.78 196.271L211.76 196.523L212.705 196.805L214.576 197.362L228.311 201.469L248.2 207.43L253.603 209.067L255.005 209.495C255.322 209.595 255.48 209.654 255.48 209.654C255.48 209.654 255.316 209.619 254.994 209.525L253.585 209.126L248.164 207.542L228.217 201.675L214.465 197.603L212.593 197.052L211.631 196.776L210.686 196.541C209.379 196.245 208.03 196.19 206.703 196.377C205.317 196.55 203.982 197.014 202.788 197.738C201.593 198.462 200.564 199.429 199.768 200.578C198.99 201.805 198.583 203.231 198.595 204.684C198.585 205.424 198.658 206.161 198.812 206.885C198.876 207.248 198.947 207.618 199.017 207.987C199.087 208.357 199.187 208.721 199.269 209.09C199.973 212.024 200.853 215.004 201.804 218.014C203.687 224.028 205.829 230.2 208.081 236.501C209.12 239.399 210.158 242.262 211.156 244.943L210.974 244.85L226.686 240.156L226.586 240.338C225.025 235.427 223.517 230.675 222.068 226.122C221.352 223.842 220.652 221.614 219.968 219.44C219.633 218.354 219.305 217.275 218.976 216.213L218.865 215.808V215.749C218.912 215.714 218.759 215.796 218.965 215.579C219.24 215.691 219.053 215.615 219.117 215.65L219.188 215.708L219.328 215.832L219.956 216.36L221.218 217.386C224.591 220.079 227.847 222.526 230.951 224.691C232.5 225.782 234.019 226.779 235.498 227.706C236.231 228.17 236.976 228.586 237.692 229.015C238.408 229.443 239.129 229.818 239.857 230.135C241.197 230.812 242.644 231.252 244.134 231.438C245.452 231.623 246.791 231.612 248.106 231.402C250.205 231.08 252.215 230.331 254.014 229.202C255.148 228.512 256.181 227.667 257.082 226.691C257.312 226.437 257.527 226.171 257.728 225.893C257.821 225.653 257.921 225.559 257.921 225.559Z" fill="#263238"/>
<path d="M211.866 208.785C212.325 208.96 212.759 209.195 213.156 209.484C214.15 210.126 215.081 210.861 215.937 211.678C216.796 212.492 217.567 213.395 218.237 214.371C218.541 214.759 218.782 215.193 218.953 215.656C218.631 215.284 218.333 214.892 218.061 214.482C217.351 213.554 216.566 212.684 215.714 211.883C214.867 211.08 213.967 210.333 213.021 209.648C212.616 209.388 212.23 209.1 211.866 208.785Z" fill="#263238"/>
<path d="M217.163 207.055C217.414 207.416 217.611 207.811 217.75 208.228C218.13 209.2 218.434 210.201 218.66 211.22C218.889 212.237 219.036 213.271 219.1 214.312C219.156 214.742 219.156 215.178 219.1 215.609C219.006 215.609 218.906 213.643 218.372 211.285C217.838 208.926 217.075 207.09 217.163 207.055Z" fill="#263238"/>
<path d="M251.467 206.445L257.135 204.814L260.837 205.482L262.597 211.666C264.357 217.134 263.964 220.267 260.338 222.667C259.276 223.371 258.267 223.758 257.534 223.447C254.988 222.367 251.467 206.445 251.467 206.445Z" fill="#455A64"/>
<path d="M257.135 204.813L220.965 198.864L221.047 199.345L257.135 210.141V204.813Z" fill="#455A64"/>
<path d="M31.3867 232.957L27.8314 245.471C27.8314 245.471 39.1604 253.327 38.7263 255.697L14.5838 249.578L19.3419 229.895L31.3867 232.957Z" fill="#455A64"/>
<path d="M20.6267 242.485C20.3756 242.5 20.1389 242.608 19.9615 242.786C19.7841 242.964 19.6785 243.202 19.6646 243.453C19.6672 243.705 19.7657 243.947 19.9401 244.129C20.1144 244.311 20.3516 244.419 20.6033 244.433C20.8699 244.416 21.1208 244.301 21.3081 244.111C21.4954 243.92 21.6058 243.667 21.6182 243.4C21.5713 242.896 21.0315 242.374 20.5329 242.497" fill="#E0E0E0"/>
<g opacity="0.6">
<path d="M14.5838 249.578L15.1412 247.613L38.0809 254.213C38.0809 254.213 39.0372 254.964 38.7263 255.697L14.5838 249.578Z" fill="white"/>
</g>
<path d="M28.2538 245.413C28.2186 245.53 27.6201 245.413 26.9454 245.677C26.2707 245.941 25.8366 246.334 25.7368 246.263C25.6371 246.193 25.9891 245.542 26.8105 245.266C27.6319 244.99 28.3066 245.313 28.2538 245.413Z" fill="#263238"/>
<path d="M30.5241 247.12C30.5241 247.237 29.9374 247.314 29.4387 247.707C28.94 248.1 28.6643 248.616 28.547 248.581C28.4296 248.546 28.547 247.847 29.1865 247.36C29.826 246.874 30.5476 247.003 30.5241 247.12Z" fill="#263238"/>
<path d="M31.2048 250.552C31.0875 250.552 31.0757 249.913 31.5392 249.338C32.0027 248.763 32.6187 248.639 32.6422 248.751C32.6657 248.862 32.2374 249.126 31.8678 249.602C31.4981 250.077 31.3221 250.57 31.2048 250.552Z" fill="#263238"/>
<path d="M28.7524 242.479C28.6761 242.573 28.1657 242.274 27.4969 242.151C26.828 242.028 26.2472 242.11 26.212 241.992C26.1768 241.875 26.7987 241.57 27.579 241.728C28.3593 241.887 28.8345 242.397 28.7524 242.479Z" fill="#263238"/>
<path d="M22.9266 235.897L22.3399 248.874C22.3399 248.874 35.1767 253.814 35.3058 256.225L10.4476 256.032L10.5004 235.767L22.9266 235.897Z" fill="#455A64"/>
<path d="M14.6776 247.724C14.4362 247.799 14.2306 247.96 14.0998 248.176C13.9689 248.392 13.922 248.649 13.9677 248.898C14.0291 249.141 14.1811 249.352 14.3926 249.487C14.6041 249.622 14.8592 249.672 15.1059 249.625C15.3569 249.547 15.5708 249.379 15.7078 249.155C15.8449 248.931 15.8958 248.664 15.851 248.405C15.7643 248.156 15.5835 247.952 15.3475 247.836C15.1116 247.72 14.8394 247.701 14.5896 247.783" fill="#E0E0E0"/>
<g opacity="0.6">
<path d="M10.4476 256.032L10.5297 253.99L34.3554 254.941C34.3554 254.941 35.4584 255.439 35.3293 256.231L10.4476 256.032Z" fill="white"/>
</g>
<path d="M22.7681 248.751C22.7681 248.874 22.1814 248.927 21.5536 249.338C20.9259 249.748 20.6325 250.247 20.521 250.194C20.4096 250.141 20.5973 249.437 21.3307 248.98C22.0641 248.522 22.7974 248.639 22.7681 248.751Z" fill="#263238"/>
<path d="M25.373 249.866C25.373 249.983 24.8685 250.188 24.4519 250.711C24.0354 251.233 23.9122 251.778 23.7948 251.767C23.6775 251.755 23.6012 251.068 24.1292 250.435C24.6573 249.801 25.3672 249.748 25.373 249.866Z" fill="#263238"/>
<path d="M26.8279 253.046C26.7164 253.046 26.5522 252.459 26.869 251.778C27.1858 251.098 27.7608 250.845 27.8077 250.945C27.8546 251.045 27.5085 251.409 27.2562 251.966C27.0039 252.523 26.9511 253.034 26.8279 253.046Z" fill="#263238"/>
<path d="M22.5744 245.776C22.5216 245.888 21.9877 245.718 21.2778 245.776C20.5679 245.835 20.0575 246.035 19.9929 245.929C19.9284 245.823 20.4505 245.383 21.2602 245.342C22.0698 245.301 22.6565 245.683 22.5744 245.776Z" fill="#263238"/>
<path d="M7.53155 140.893V151.16L10.2538 191.149C10.2538 191.149 8.57586 210.551 7.51981 221.505C6.61631 231.015 8.10651 247.578 8.10651 247.578H23.9473L29.6147 192.34L33.1349 157.89L39.2365 142.213L7.53155 140.893Z" fill="#263238"/>
<path d="M46.4353 140.893L47.9665 182.578C47.8609 190.398 45.7078 205.001 42.9092 212.294L30.1838 240.25L29.4505 242.767L19.9871 240.449L27.0215 141.626L46.4353 140.893Z" fill="#263238"/>
<path d="M35.476 151.935C35.4839 152.019 35.4839 152.103 35.476 152.187C35.476 152.363 35.476 152.604 35.476 152.914C35.476 153.577 35.476 154.522 35.476 155.731C35.476 158.177 35.476 161.715 35.3997 166.086C35.3235 170.457 35.1885 175.661 34.8776 181.434C34.5666 187.207 34.1501 193.572 32.7948 200.12C31.6038 206.673 30.2838 212.892 29.1104 218.548C27.937 224.204 26.8927 229.302 26.1124 233.603C25.3321 237.903 24.763 241.394 24.4168 243.817C24.2349 245.025 24.1411 245.97 24.0531 246.604C24.012 246.915 23.9768 247.155 23.9533 247.331C23.9465 247.415 23.9308 247.497 23.9064 247.578C23.8986 247.494 23.8986 247.409 23.9064 247.325C23.9064 247.149 23.9416 246.909 23.9709 246.598C24.0413 245.958 24.1176 245.014 24.2819 243.799C24.5694 241.37 25.0915 237.874 25.8425 233.561C26.5935 229.249 27.6026 224.174 28.776 218.489C29.9493 212.804 31.2635 206.615 32.5132 200.061C33.8626 193.531 34.2733 187.154 34.6136 181.416C34.9538 175.678 35.0947 170.451 35.2003 166.08C35.3059 161.709 35.3469 158.177 35.3763 155.731C35.3763 154.522 35.3763 153.577 35.3763 152.914C35.3763 152.604 35.3763 152.363 35.3763 152.187C35.4038 152.101 35.4371 152.016 35.476 151.935Z" fill="#455A64"/>
<path d="M55.4176 130.239C55.632 131.019 55.7114 131.831 55.6523 132.638C55.535 133.864 55.4763 136.892 52.2026 137.918C48.9288 138.945 45.8369 136.493 44.8395 135.384C43.8422 134.275 43.9536 130.643 43.9536 130.643L49.3336 128.25L55.4176 130.239Z" fill="#CCE0FF"/>
<path d="M18.2271 84.0483L15.5048 88.4251L4.46909 93.1186L7.23242 138.417L9.21544 146.631L45.9601 145.411L46.8695 139.051V108.502C46.0364 100.663 42.2522 95.7939 38.7379 93.8637L36.4439 92.2914L35.5639 89.4107L32.3253 86.3775L21.9467 83.6846L18.2271 84.0483Z" fill="#CCE0FF"/>
<g opacity="0.3">
<path d="M6.01218 134.973C7.19621 136.772 8.87128 138.194 10.8387 139.069C12.8062 139.945 14.9835 140.238 17.1124 139.913C20.8027 139.291 23.9181 136.857 27.4559 135.642C33.6103 133.518 40.633 135.208 46.6994 132.844C46.8168 131.799 46.7464 130.497 46.8168 129.805C43.7836 129.646 40.5509 129.476 37.8697 128.044L35.4349 127.147L6.01218 134.973Z" fill="black"/>
</g>
<path d="M4.46911 93.1245C4.46911 93.1245 -0.770073 97.6069 0.749465 109.294C2.15753 120.148 4.65685 135.273 7.98927 137.027C11.3217 138.781 18.5146 137.901 23.7772 134.921C29.0399 131.94 44.3115 123.867 44.3115 123.867L37.9928 112.638L17.6404 120.535C17.6404 120.535 15.0061 102.523 13.4279 99.4139" fill="#CCE0FF"/>
<path d="M13.4279 99.4256C13.4279 99.4256 13.4866 99.5371 13.5863 99.7659C13.6333 99.8832 13.7037 100.024 13.7682 100.2L13.9677 100.816C14.2669 101.743 14.6248 103.163 15.012 104.964C15.7982 108.607 16.7721 113.911 17.746 120.517L17.5993 120.429L37.94 112.509L38.0515 112.462L38.116 112.568C40.1108 116.117 42.2229 119.89 44.4347 123.791L44.511 123.926L44.3643 124.026L31.3162 131.066L24.9154 134.51C23.8652 135.097 22.815 135.683 21.7297 136.129C20.6476 136.593 19.5364 136.985 18.4031 137.303C16.1951 137.916 13.9049 138.181 11.615 138.089C10.4968 138.045 9.39396 137.813 8.35302 137.402L7.97167 137.232C7.84387 137.164 7.72043 137.087 7.60206 137.003C7.38719 136.828 7.19062 136.632 7.01536 136.417C6.68213 135.985 6.39319 135.521 6.15292 135.032C5.28336 133.148 4.60146 131.183 4.11709 129.165C3.6008 127.211 3.19598 125.293 2.83223 123.439C2.1106 119.719 1.57671 116.234 1.13082 113.049C0.684931 109.863 0.291846 106.959 0.409185 104.395C0.469249 102.196 0.864946 100.02 1.58257 97.9413C2.04162 96.6305 2.69207 95.3948 3.5128 94.2744C3.72646 93.985 3.95974 93.7106 4.21096 93.4531C4.2939 93.3636 4.38417 93.2811 4.48084 93.2067L4.22856 93.4707C4.07016 93.6526 3.83548 93.9283 3.55973 94.3097C2.77061 95.4415 2.14271 96.6776 1.69404 97.9824C1.00601 100.052 0.636097 102.214 0.596927 104.395C0.497189 106.941 0.902007 109.828 1.35963 113.013C1.81725 116.199 2.36874 119.672 3.11971 123.38C3.48933 125.234 3.90001 127.147 4.41631 129.089C4.8982 131.095 5.57819 133.049 6.44627 134.921C6.67975 135.393 6.95877 135.841 7.27937 136.258C7.44168 136.459 7.62456 136.642 7.825 136.804C7.92735 136.878 8.03522 136.945 8.14768 137.003L8.51143 137.168C9.52236 137.565 10.5938 137.788 11.6796 137.825C13.9323 137.878 16.1794 137.577 18.3386 136.933C19.4577 136.627 20.5553 136.246 21.624 135.795C22.6977 135.331 23.7185 134.75 24.7746 134.187L31.1813 130.737L44.2352 123.697L44.1766 123.903L37.8696 112.708L38.0398 112.767L17.6756 120.635L17.5524 120.687V120.547C16.5785 113.946 15.6632 108.631 14.9181 104.993C14.5485 103.169 14.2082 101.767 13.9325 100.834C13.8621 100.599 13.8034 100.394 13.7447 100.212L13.5805 99.7776C13.469 99.5488 13.4279 99.4256 13.4279 99.4256Z" fill="#263238"/>
<path d="M15.1822 106.079L28.4004 105.21L31.3221 110.708L16.5081 113.371L15.1822 106.079Z" fill="#CCE0FF"/>
<path d="M15.182 106.079C15.233 106.252 15.2741 106.429 15.3052 106.607C15.3756 106.976 15.4754 107.463 15.5986 108.073C15.845 109.358 16.1853 111.154 16.6194 113.354L16.4845 113.26L29.8201 110.825L31.2985 110.561L31.187 110.778C30.1662 108.842 29.1806 106.994 28.2536 105.281L28.3885 105.351L18.9193 105.903L16.1735 106.049H15.4343H15.1644C15.2425 106.043 15.321 106.043 15.3991 106.049L16.1031 105.985L18.8137 105.768L28.3709 105.07H28.4648L28.5059 105.152L31.4393 110.643L31.5391 110.825L31.3337 110.866L29.8611 111.13L16.508 113.477H16.3965V113.365C16.021 111.124 15.7101 109.294 15.4871 107.985C15.3874 107.399 15.3111 106.9 15.2524 106.542C15.2202 106.389 15.1967 106.234 15.182 106.079Z" fill="#263238"/>
<path d="M17.6403 120.535C17.7224 120.599 16.5373 121.99 15.5517 123.973C14.566 125.956 14.1436 127.739 14.038 127.71C14.0542 127.31 14.1293 126.915 14.261 126.537C14.509 125.606 14.849 124.702 15.2759 123.838C15.7067 122.976 16.2237 122.16 16.8189 121.403C17.047 121.074 17.324 120.781 17.6403 120.535Z" fill="#263238"/>
<path d="M30.9173 95.348C30.6562 95.1986 30.4106 95.0237 30.184 94.8259L28.2655 93.3005H28.4297C27.6891 94.4976 26.8087 95.6025 25.8072 96.5918L25.7134 96.6857L25.6077 96.5977L23.5837 94.9139C21.4129 93.1538 19.3829 91.6049 17.9045 90.5137L16.1444 89.2171C15.9214 89.0714 15.7131 88.9044 15.5225 88.7184C15.7658 88.8306 15.9977 88.9661 16.2148 89.1232C16.6489 89.3989 17.2708 89.8096 18.0277 90.3377C19.5413 91.3878 21.5948 92.9015 23.7714 94.6792C24.4813 95.2659 25.1677 95.8526 25.7955 96.3747H25.5901C26.583 95.4051 27.4682 94.3311 28.2303 93.1714L28.3007 93.0599L28.3945 93.1479L30.2837 94.7261C30.5095 94.918 30.7212 95.1259 30.9173 95.348Z" fill="#263238"/>
<path d="M36.35 92.573C36.4282 92.8093 36.4639 93.0576 36.4556 93.3064C36.4941 93.9602 36.4725 94.6161 36.3911 95.2659L36.35 95.6121L36.1506 95.3187C35.6629 94.6146 35.138 93.937 34.5782 93.2888C34.3435 93.013 34.103 92.7549 33.8683 92.5085C33.7608 92.3874 33.6472 92.2719 33.528 92.1623C33.4107 92.0861 33.4283 92.0861 33.3227 92.1975L32.3488 93.5528C32.0695 93.9888 31.7471 94.3956 31.3866 94.7673C31.6042 94.2967 31.8676 93.8487 32.1728 93.4296L33.0997 92.0274C33.128 91.9779 33.167 91.9354 33.2139 91.9029C33.2608 91.8705 33.3143 91.849 33.3706 91.84C33.4269 91.831 33.4845 91.8347 33.5391 91.8509C33.5938 91.8671 33.6441 91.8953 33.6864 91.9335C33.839 92.0626 33.9329 92.1682 34.0619 92.2973C34.3025 92.5437 34.5489 92.8077 34.7894 93.0893C35.3584 93.7456 35.88 94.4416 36.35 95.1721L36.1036 95.2307C36.3676 93.6525 36.2855 92.573 36.35 92.573Z" fill="#263238"/>
<path d="M12.8235 97.6243C12.5217 97.3244 12.2468 96.9985 12.0022 96.6504C11.3842 95.8508 10.6552 95.1435 9.83725 94.5501C8.99365 94.0132 8.04585 93.6613 7.05632 93.5175C6.63377 93.4826 6.21421 93.4179 5.8008 93.3239C6.22599 93.2511 6.66046 93.2511 7.08566 93.3239C8.13458 93.4291 9.14175 93.7897 10.0191 94.3741C10.8662 94.9814 11.6008 95.7319 12.1899 96.5918C12.4481 96.9048 12.6614 97.2523 12.8235 97.6243Z" fill="#263238"/>
<path d="M41.5424 105.756C41.0989 104.856 40.7489 103.912 40.4981 102.94C40.1481 101.99 39.8945 101.007 39.7413 100.006C40.1864 100.909 40.5383 101.855 40.7915 102.828C41.1403 103.776 41.3919 104.757 41.5424 105.756Z" fill="#263238"/>
<path d="M46.7404 131.653C46.8249 132.038 46.8643 132.432 46.8577 132.826C46.9046 133.542 46.9868 134.528 47.0337 135.625C47.0862 136.565 47.0666 137.509 46.975 138.447C46.9638 138.85 46.8783 139.248 46.7228 139.62C46.7029 139.229 46.7147 138.836 46.758 138.447C46.758 137.731 46.758 136.745 46.758 135.654C46.758 134.563 46.6641 133.571 46.6758 132.85C46.6319 132.45 46.6537 132.045 46.7404 131.653Z" fill="#263238"/>
<path d="M22.7564 109.945C22.6333 110.075 22.5636 110.246 22.5611 110.424C22.5587 110.603 22.6237 110.776 22.7432 110.909C22.8626 111.042 23.0278 111.124 23.2057 111.141C23.3836 111.157 23.5611 111.106 23.7029 110.997C23.8447 110.889 23.9403 110.731 23.9706 110.554C24.0009 110.378 23.9637 110.197 23.8665 110.048C23.7692 109.898 23.619 109.79 23.4459 109.746C23.2728 109.702 23.0894 109.725 22.9324 109.81" fill="#E0E0E0"/>
<g opacity="0.3">
<path d="M14.3022 102.119L18.0101 113.101L30.2309 110.907L18.4501 115.524L17.4586 119.332L14.3022 102.119Z" fill="black"/>
</g>
<g opacity="0.3">
<path d="M15.8392 88.912L26.7634 98.7978L28.4531 94.1746L30.2132 94.7613L28.3182 93.189C28.3182 93.189 26.2413 96.3806 25.6898 96.4393L15.8392 88.912Z" fill="black"/>
</g>
<path d="M36.6611 112.591C36.5622 112.379 36.4874 112.157 36.4381 111.928C36.3032 111.435 36.1272 110.819 35.9218 110.092C35.4877 108.543 34.8599 106.413 34.0914 104.078C33.3228 101.743 32.5483 99.6661 31.9734 98.1583C31.7094 97.4543 31.4806 96.8617 31.2987 96.3982C31.2019 96.1834 31.1272 95.9593 31.0757 95.7294C31.2084 95.9236 31.3187 96.1322 31.4043 96.3513C31.5979 96.7561 31.8619 97.3545 32.1787 98.1113C32.8006 99.5957 33.6044 101.678 34.3788 104.013C35.1533 106.349 35.7517 108.502 36.1389 110.068C36.3325 110.848 36.4733 111.488 36.5613 111.928C36.6204 112.144 36.6539 112.367 36.6611 112.591Z" fill="#263238"/>
<path d="M36.5026 100.394C38.5678 102.453 43.8011 107.827 43.8011 107.827L45.2033 106.982L37.8285 99.1088C37.6799 98.9525 37.4814 98.8529 37.2672 98.8272C37.053 98.8015 36.8366 98.8513 36.6551 98.968C36.5395 99.0425 36.4421 99.1419 36.3699 99.2589C36.2977 99.3759 36.2527 99.5076 36.2381 99.6444C36.2234 99.7811 36.2396 99.9193 36.2854 100.049C36.3312 100.179 36.4054 100.296 36.5026 100.394Z" fill="#263238"/>
<path d="M37.9929 112.638L39.753 107.686C39.9321 107.148 40.2714 106.678 40.7255 106.338C41.1795 105.998 41.7266 105.805 42.2934 105.785C42.3811 105.777 42.4696 105.777 42.5574 105.785C43.6134 105.903 49.011 106.255 49.011 106.255L51.0938 108.602C51.2627 108.798 51.3556 109.049 51.3556 109.308C51.3556 109.568 51.2627 109.819 51.0938 110.015L51.6805 114.222L50.5071 115.026L50.6244 117.959C50.6244 117.959 49.5684 118.663 49.1049 118.429L48.6355 118.194L47.9315 117.49L45.9426 120.3L43.191 121.89L37.9929 112.638Z" fill="#FFBE9D"/>
<path d="M51.0996 110.232C50.8638 109.944 50.6111 109.67 50.3428 109.411C50.0425 109.162 49.7037 108.964 49.3396 108.824C48.862 108.712 48.3748 108.645 47.8846 108.625C46.5924 108.554 45.3077 108.383 44.0417 108.115C45.3359 108.078 46.6309 108.146 47.9139 108.32C48.428 108.341 48.9378 108.422 49.4334 108.56C49.8291 108.724 50.1882 108.966 50.4895 109.27C50.7891 109.519 51.0027 109.855 51.0996 110.232Z" fill="#EB996E"/>
<path d="M50.9822 114.105C50.8628 113.735 50.7177 113.374 50.5481 113.025C50.0717 112.223 49.3406 111.603 48.4712 111.265C47.5879 110.952 46.6567 110.795 45.7196 110.802C45.3282 110.829 44.9352 110.817 44.5462 110.766C44.924 110.64 45.3212 110.58 45.7196 110.59C46.693 110.513 47.6716 110.647 48.5885 110.983C49.5194 111.339 50.2876 112.024 50.7475 112.908C50.9594 113.269 51.0421 113.691 50.9822 114.105Z" fill="#EB996E"/>
<path d="M50.4542 117.719C50.2551 117.361 50.1578 116.955 50.1726 116.545C50.1499 116.131 50.0607 115.723 49.9086 115.337C49.8043 115.118 49.6492 114.928 49.4562 114.782C49.2633 114.636 49.0382 114.539 48.7998 114.498C47.8772 114.299 46.9422 114.164 46.0012 114.093C45.5961 114.081 45.1973 113.99 44.8278 113.823C45.2198 113.817 45.6118 113.837 46.0012 113.882C46.9643 113.887 47.9241 113.996 48.8643 114.204C49.1494 114.273 49.4184 114.397 49.6563 114.568C49.8747 114.741 50.0446 114.967 50.1492 115.225C50.3004 115.642 50.3739 116.084 50.3662 116.528C50.3897 117.273 50.4894 117.701 50.4542 117.719Z" fill="#EB996E"/>
<path d="M53.3819 108.42L30.184 132.38L31.0758 133.284L47.6969 131.412L70.0616 110.103L70.0382 109.083L53.3819 108.42Z" fill="#455A64"/>
<g opacity="0.3">
<path d="M54.8838 123.474C54.4341 123.065 53.9039 122.753 53.327 122.56C52.7502 122.367 52.1394 122.297 51.5338 122.354C50.3184 122.48 49.1683 122.966 48.2307 123.75C47.4399 124.33 46.8625 125.155 46.5879 126.097C46.2007 127.757 47.3037 129.494 48.8056 130.297L49.011 130.057L54.7254 125.469C55.0367 125.272 55.2707 124.973 55.3884 124.624C55.4048 124.406 55.3674 124.187 55.2794 123.986C55.1914 123.786 55.0556 123.61 54.8838 123.474Z" fill="black"/>
</g>
<path d="M52.4372 121.233C52.4372 121.233 54.6842 121.28 55.4176 121.644C56.1509 122.007 58.1692 124.161 58.1692 124.161C58.1692 124.161 58.1692 125.622 57.5825 125.68C57.6514 126.006 57.6907 126.338 57.6998 126.672C57.7585 127.493 57.8758 127.962 56.7611 128.661C56.7611 128.661 56.8784 130.01 56.4678 130.356C56.1914 130.591 55.8993 130.807 55.5936 131.001C55.5936 131.001 54.3087 132.58 53.546 132.462C52.7833 132.345 51.6862 133.284 51.6862 133.284C51.6862 133.284 47.5793 131.571 47.99 131.084L49.4216 129.5C49.4216 129.5 46.5878 127.434 46.6465 126.789C46.7052 126.144 46.9398 126.091 46.9398 126.091C46.9398 126.091 46.8225 124.859 47.814 124.741C47.814 124.741 48.5767 123.222 49.3336 123.163C50.0904 123.105 55.2416 124.976 55.2416 124.976L53.3113 123.339C53.3113 123.339 51.3811 123.046 51.4398 122.406C51.4985 121.767 52.4372 121.233 52.4372 121.233Z" fill="#FFBE9D"/>
<path d="M52.0911 128.942C52.0442 129.013 50.9178 128.355 49.4862 127.675C48.5919 127.302 47.7184 126.881 46.8696 126.413C47.8313 126.594 48.7581 126.927 49.6153 127.399C50.5194 127.775 51.3558 128.296 52.0911 128.942Z" fill="#EB996E"/>
<path d="M54.7722 127.147C53.6236 126.885 52.5006 126.522 51.4163 126.061C50.2943 125.699 49.2066 125.237 48.166 124.683C49.3137 124.955 50.4363 125.324 51.5219 125.786C52.6417 126.147 53.7289 126.603 54.7722 127.147Z" fill="#EB996E"/>
<path d="M69.9735 110.062C69.872 110.071 69.7699 110.071 69.6684 110.062H68.7825L65.456 110.021L53.8922 109.798L53.9978 109.757L48.1837 115.812C43.4901 120.652 39.2366 125.023 36.133 128.221L32.4544 131.952L31.457 132.949C31.3428 133.07 31.2192 133.182 31.0874 133.284C31.1867 133.148 31.2966 133.021 31.416 132.902L32.384 131.858L35.9922 128.056L47.9783 115.589L53.8042 109.575L53.8453 109.528H53.9098L65.4736 109.863L68.7943 109.986L69.6802 110.027C69.7791 110.025 69.8778 110.037 69.9735 110.062Z" fill="#263238"/>
<path d="M41.5483 62.3464C40.8161 61.5163 39.798 60.9926 38.6969 60.8797C38.0828 60.7153 37.431 60.765 36.8488 61.0205C36.5068 61.2522 36.2364 61.575 36.0685 61.9525C35.9005 62.3299 35.8416 62.7468 35.8984 63.156C36.0258 63.9673 36.2647 64.757 36.6083 65.5028C36.953 66.2567 37.0692 67.095 36.9427 67.9141L39.0489 72.9304C39.4108 72.7943 39.7386 72.581 40.0095 72.3052C40.2803 72.0294 40.4878 71.6979 40.6174 71.3337C40.747 70.9695 40.7956 70.5814 40.7598 70.1965C40.724 69.8116 40.6046 69.4392 40.4101 69.1051C40.7436 68.9243 41.033 68.6719 41.2574 68.3661C41.4819 68.0602 41.6358 67.7084 41.7082 67.336C41.7805 66.9635 41.7695 66.5797 41.6759 66.212C41.5823 65.8444 41.4085 65.502 41.1669 65.2095C42.1291 64.6932 42.2054 63.2206 41.5483 62.3464Z" fill="#263238"/>
<path d="M22.1169 75.4414L21.8705 65.3034L15.4521 65.01C15.0607 65.1087 14.7052 65.316 14.4265 65.6079C14.1478 65.8999 13.9573 66.2647 13.877 66.6602C13.7966 67.0558 13.8297 67.466 13.9724 67.8435C14.1151 68.2211 14.3616 68.5507 14.6835 68.7942C14.1885 69.0173 13.7743 69.3875 13.4974 69.8545C13.2204 70.3215 13.0942 70.8626 13.1359 71.4039C13.1776 71.9452 13.3851 72.4606 13.7303 72.8797C14.0755 73.2988 14.5415 73.6012 15.0648 73.7459C14.7705 74.1108 14.5784 74.5474 14.5082 75.0109C14.438 75.4744 14.4922 75.9483 14.6653 76.384C14.8384 76.8197 15.1241 77.2016 15.4933 77.4906C15.8624 77.7796 16.3017 77.9653 16.7662 78.0288C16.7662 79.2021 17.4351 80.5163 18.585 80.8449C19.7349 81.1734 21.0843 80.2993 21.6241 79.1611C22.1638 78.0229 22.1462 76.7028 22.1169 75.4414Z" fill="#263238"/>
<path d="M15.2761 63.8895C15.2761 63.8895 15.9097 72.2792 16.7311 74.8372C17.4009 76.7037 18.2828 78.4872 19.3595 80.1526L38.9316 74.0745C39.5946 69.5452 40.281 64.9925 39.9994 61.4254L33.7569 59.2018L15.2761 63.8895Z" fill="#263238"/>
<path d="M19.4181 74.8372C18.5881 72.5936 17.9503 70.2835 17.5114 67.9318C17.0775 65.571 17.2388 63.1392 17.9807 60.8563C18.0981 60.5102 19.1541 58.2162 19.5061 58.2514C19.7643 58.2514 19.1306 60.4045 19.2656 60.6275C20.4707 62.8049 20.9882 65.2962 20.7499 67.7734C20.5658 70.162 20.1191 72.523 19.4181 74.8138" fill="#263238"/>
<path d="M33.006 90.5431V84.8639C33.006 84.8639 38.7908 84.1951 39.0841 78.4513C39.2308 75.6763 39.0841 69.9384 38.8436 64.752C38.732 62.0613 37.6112 59.5113 35.7042 57.6097C33.7972 55.7082 31.244 54.5946 28.553 54.4907H28.0015C22.0113 54.6022 18.7611 59.771 19.0427 65.7435V85.1983L30.8704 93.7171L33.006 90.5431Z" fill="#FFBE9D"/>
<path d="M33.0177 84.8639C30.3658 84.7566 27.8004 83.8912 25.6253 82.3705C25.6253 82.3705 27.2856 86.624 33.0411 86.3307L33.0177 84.8639Z" fill="#EB996E"/>
<path d="M36.9778 69.6626C36.9717 69.8774 36.8816 70.0812 36.727 70.2303C36.5723 70.3795 36.3654 70.4621 36.1506 70.4605C36.0461 70.4652 35.9418 70.4489 35.8439 70.4126C35.7459 70.3762 35.6562 70.3205 35.5801 70.2488C35.504 70.1772 35.4432 70.0909 35.4011 69.9952C35.359 69.8996 35.3365 69.7964 35.3351 69.6919C35.3366 69.4761 35.423 69.2696 35.5756 69.117C35.7282 68.9644 35.9347 68.878 36.1506 68.8764C36.2574 68.87 36.3644 68.8856 36.465 68.9223C36.5655 68.959 36.6575 69.0159 36.7351 69.0897C36.8127 69.1634 36.8742 69.2523 36.916 69.3509C36.9578 69.4495 36.9788 69.5555 36.9778 69.6626Z" fill="#263238"/>
<path d="M37.5352 67.1163C37.4296 67.216 36.8253 66.7349 35.9394 66.6997C35.0535 66.6645 34.3906 67.0869 34.3026 66.9755C34.2145 66.864 34.3671 66.7349 34.6604 66.5413C35.0513 66.2903 35.5106 66.1672 35.9746 66.1893C36.4338 66.2053 36.8758 66.3677 37.236 66.6528C37.5 66.8405 37.588 67.04 37.5352 67.1163Z" fill="#263238"/>
<path d="M29.0634 69.8034C29.0573 70.0172 28.968 70.2201 28.8146 70.3691C28.6613 70.5181 28.4558 70.6014 28.242 70.6013C28.137 70.6053 28.0323 70.5882 27.9339 70.5513C27.8356 70.5143 27.7456 70.4582 27.6691 70.3861C27.5927 70.3141 27.5313 70.2275 27.4887 70.1315C27.446 70.0355 27.4229 69.9319 27.4206 69.8269C27.4282 69.6126 27.5187 69.4097 27.673 69.2608C27.8274 69.112 28.0335 69.0289 28.2479 69.029C28.3526 69.0251 28.457 69.0421 28.555 69.0791C28.653 69.1162 28.7427 69.1724 28.8186 69.2445C28.8946 69.3167 28.9554 69.4033 28.9974 69.4993C29.0395 69.5953 29.0619 69.6987 29.0634 69.8034Z" fill="#263238"/>
<path d="M28.8698 67.1163C28.7642 67.2219 28.1599 66.735 27.274 66.7056C26.3881 66.6763 25.731 67.087 25.6371 66.9755C25.5433 66.864 25.7017 66.735 25.995 66.5414C26.3865 66.2917 26.8454 66.1688 27.3092 66.1893C27.7696 66.2081 28.2126 66.3701 28.5765 66.6528C28.8346 66.864 28.9226 67.0576 28.8698 67.1163Z" fill="#263238"/>
<path d="M31.7738 74.0158C32.2442 73.8859 32.7292 73.8169 33.2171 73.8105C33.4401 73.8105 33.6571 73.7636 33.7041 73.611C33.7293 73.3783 33.6844 73.1433 33.575 72.9363C33.3873 72.3809 33.1917 71.7942 32.9883 71.1763C32.1611 68.6945 31.5685 66.6587 31.6682 66.6235C31.768 66.5883 32.5248 68.5772 33.3521 71.0589C33.5515 71.6456 33.7451 72.2323 33.9388 72.819C34.0697 73.0973 34.1008 73.4122 34.0268 73.7108C33.9896 73.7889 33.9355 73.8578 33.8686 73.9125C33.8017 73.9673 33.7234 74.0066 33.6395 74.0276C33.5124 74.0555 33.3824 74.0673 33.2523 74.0628C32.7594 74.1072 32.2629 74.0915 31.7738 74.0158Z" fill="#263238"/>
<path d="M29.1512 74.5263C29.292 74.5263 29.2568 75.4826 30.0489 76.1925C30.8409 76.9024 31.8676 76.8379 31.8735 76.9728C31.8794 77.1078 31.6388 77.1488 31.2047 77.143C30.6443 77.1351 30.1053 76.927 29.6851 76.5563C29.2802 76.1989 29.0298 75.6983 28.987 75.1599C28.9694 74.7434 29.1102 74.5146 29.1512 74.5263Z" fill="#263238"/>
<path d="M29.2746 64.0714C29.1808 64.3061 28.3007 64.1594 27.2623 64.2415C26.2238 64.3237 25.3731 64.5759 25.244 64.3589C25.1854 64.2533 25.3379 64.0303 25.6841 63.8132C26.1446 63.5407 26.6635 63.3818 27.1977 63.3497C27.7302 63.304 28.2659 63.3885 28.7583 63.5962C29.1103 63.7604 29.3157 63.9599 29.2746 64.0714Z" fill="#263238"/>
<path d="M37.283 64.1359C37.1187 64.3295 36.5203 64.1007 35.7869 64.0596C35.0535 64.0186 34.4316 64.1418 34.2967 63.9247C34.238 63.825 34.3436 63.6255 34.6252 63.4495C34.994 63.2285 35.4232 63.1299 35.8514 63.1679C36.2789 63.193 36.6885 63.3487 37.0248 63.6137C37.2771 63.8308 37.3534 64.042 37.283 64.1359Z" fill="#263238"/>
<path d="M19.3535 69.997C19.2597 69.9501 15.452 68.6711 15.4227 72.6078C15.3933 76.5445 19.3477 75.7583 19.3594 75.6469C19.3711 75.5354 19.3535 69.997 19.3535 69.997Z" fill="#FFBE9D"/>
<path d="M18.1684 74.1567C18.1684 74.1567 18.098 74.2036 17.9806 74.2564C17.8999 74.2908 17.8131 74.3085 17.7254 74.3085C17.6377 74.3085 17.5509 74.2908 17.4702 74.2564C17.2162 74.095 17.0102 73.8682 16.874 73.5998C16.7377 73.3314 16.6762 73.0314 16.6958 72.731C16.689 72.3937 16.7571 72.0591 16.8952 71.7512C16.9332 71.6292 16.9999 71.5181 17.0897 71.4272C17.1796 71.3364 17.2899 71.2684 17.4115 71.2291C17.491 71.2092 17.5749 71.2177 17.6488 71.253C17.7227 71.2883 17.7819 71.3483 17.8163 71.4227C17.8691 71.5283 17.8163 71.6104 17.8633 71.6163C17.9102 71.6222 17.9513 71.5517 17.9161 71.3875C17.8969 71.2895 17.8426 71.2019 17.7635 71.1411C17.6564 71.0592 17.5221 71.0214 17.3881 71.0355C17.2282 71.0648 17.0783 71.1339 16.9522 71.2365C16.826 71.339 16.7278 71.4716 16.6664 71.6221C16.4966 71.9625 16.412 72.339 16.42 72.7193C16.3996 73.0697 16.4827 73.4185 16.659 73.722C16.8353 74.0256 17.097 74.2706 17.4115 74.4266C17.5172 74.4561 17.628 74.4624 17.7363 74.4452C17.8446 74.428 17.948 74.3876 18.0393 74.3268C18.1566 74.2388 18.1801 74.1567 18.1684 74.1567Z" fill="#EB996E"/>
<path d="M36.2973 58.2397C36.9368 57.8877 35.0242 55.8284 33.4577 55.1185C31.1109 54.0508 27.4793 53.3936 25.2968 54.0155C22.6743 54.7665 20.4976 56.0748 19.1834 58.4686C17.9168 60.9028 17.3214 63.6306 17.4586 66.3713C17.4363 67.2092 17.6389 68.0378 18.0452 68.7709C18.5967 69.6392 19.6528 70.1848 19.6059 71.3876C19.5862 71.817 19.7334 72.2374 20.0165 72.561C20.7382 73.3295 21.6182 72.6079 22.023 71.8863C22.8855 70.3433 22.9793 68.501 23.0497 66.7351C23.1693 65.4839 23.0841 64.2216 22.7975 62.9978C22.6039 62.3407 22.2929 61.7247 22.1345 61.0559C22.0372 60.7276 22.0115 60.3823 22.0591 60.0432C22.1067 59.7042 22.2264 59.3793 22.4103 59.0905C22.5087 58.9741 22.6166 58.8662 22.7329 58.7678C23.2795 58.2995 23.9396 57.9831 24.647 57.8502C25.3544 57.7174 26.0843 57.7728 26.7635 58.0109C28.9812 58.7912 32.7654 59.9529 33.7511 59.1843C34.4524 58.7247 35.0515 58.1255 35.5111 57.4242L36.2973 58.2397Z" fill="#263238"/>
<path d="M25.1735 49.9497C24.8978 49.979 18.1684 51.2639 16.3262 56.1862C14.484 61.1086 14.9299 62.6398 14.9299 62.6398C14.6634 62.7988 14.4222 62.9965 14.2141 63.2265C13.9266 63.5434 14.2786 65.1216 15.1528 64.9866C21.7766 62.3172 29.5092 62.2878 38.1043 62.8393L44.6929 62.9801C46.5292 63.2559 47.198 62.7865 46.4529 62.2996C45.8662 61.9241 40.7033 59.6477 40.7033 59.6477L39.6708 58.8498L37.0776 54.9894C37.0776 54.9894 37.4296 54.4731 36.7783 54.0154C36.1271 53.5578 30.6474 49.3747 25.1735 49.9497Z" fill="#CCE0FF"/>
<path d="M39.6708 58.8498C39.5848 58.855 39.4986 58.855 39.4126 58.8498L38.6793 58.8087C38.0398 58.7618 37.1187 58.7383 35.9746 58.7266C33.0031 58.7238 30.037 58.979 27.1097 59.4893C24.1817 60.0195 21.2865 60.7168 18.4383 61.5779C17.3412 61.8947 16.4612 62.1646 15.851 62.3641L15.147 62.5753L14.8947 62.6457L15.1352 62.5577L15.8334 62.323C16.4201 62.1236 17.3236 61.8302 18.4148 61.5016C21.2614 60.6195 24.1592 59.9122 27.0921 59.3837C30.0273 58.8575 33.0044 58.6002 35.9863 58.6151C38.2745 58.6738 39.6708 58.8498 39.6708 58.8498Z" fill="#263238"/>
<g opacity="0.3">
<path d="M18.9781 52.6778C18.9781 52.6778 26.2121 51.7567 29.3861 53.417L29.0165 53.2175L32.0438 54.6549C32.2767 54.8127 32.5418 54.9167 32.8198 54.9594C33.0979 55.002 33.3819 54.9822 33.6514 54.9013C32.3093 53.7468 30.7632 52.8534 29.0927 52.2671C26.0947 51.1465 21.3249 50.5481 18.9781 52.6778Z" fill="black"/>
</g>
<path d="M18.8726 52.713C19.0801 52.5619 19.2999 52.4285 19.5297 52.314C20.1502 51.9827 20.808 51.7266 21.4892 51.5513C22.5 51.2898 23.5436 51.1771 24.587 51.2169C25.8721 51.2316 27.1389 51.5238 28.3007 52.0735C28.8923 52.3693 29.4645 52.7024 30.0139 53.0708C30.5419 53.4229 31.0699 53.7397 31.5452 54.0917C31.976 54.4375 32.4331 54.7494 32.9122 55.0245C33.3436 55.2346 33.8168 55.3449 34.2967 55.3472C36.0568 55.4352 37.1598 55.1008 37.0894 54.9893C37.056 55.0487 37.0046 55.0959 36.9427 55.1243C36.7654 55.1989 36.5805 55.254 36.3912 55.2885C35.6983 55.4117 34.994 55.4589 34.2909 55.4294C33.7992 55.4318 33.3134 55.3214 32.8711 55.1067C32.3849 54.8339 31.9219 54.522 31.4865 54.1738C31.0171 53.8277 30.4832 53.5109 29.9552 53.1588C29.4081 52.7968 28.84 52.4677 28.2538 52.1732C27.1068 51.6287 25.8564 51.3366 24.587 51.3166C23.5507 51.2728 22.5134 51.3775 21.5068 51.6276C20.8296 51.7969 20.1726 52.0389 19.5473 52.3492C19.3243 52.4607 19.16 52.5546 19.0486 52.6191L18.8726 52.713Z" fill="#263238"/>
<g opacity="0.3">
<path d="M15.6163 58.2397C16.8225 58.2073 18.0212 58.038 19.1892 57.7352C20.5621 57.4829 21.9232 57.2951 23.2961 56.9783C24.3287 56.7378 25.549 56.5266 26.2296 55.8049C26.271 56.0596 26.2463 56.3206 26.158 56.5631C26.0696 56.8055 25.9206 57.0212 25.725 57.1895C25.0401 57.6071 24.2907 57.9085 23.5073 58.0813C20.8248 58.8124 18.0707 59.2492 15.2936 59.3838C15.3744 58.9852 15.4842 58.593 15.6221 58.2104" fill="black"/>
</g>
<path d="M16.5551 55.6465C15.7279 55.975 15.2175 56.198 15.1705 56.8903C15.1295 57.477 15.2233 58.1869 15.7924 58.3042C15.9672 58.3334 16.1456 58.3334 16.3204 58.3042L25.2851 56.8082C25.5952 56.7906 25.8896 56.6662 26.1182 56.4561C26.2449 56.2573 26.2881 56.0165 26.2387 55.786C26.1893 55.5555 26.0512 55.3536 25.8542 55.2241C25.446 54.9782 24.9752 54.8559 24.499 54.8721C21.8274 54.7776 19.1554 55.0441 16.5551 55.6641" fill="#CCE0FF"/>
<path d="M25.9773 56.5558C26.0942 56.4537 26.1813 56.322 26.2296 56.1745C26.2866 55.973 26.2861 55.7596 26.228 55.5584C26.1699 55.3572 26.0567 55.1764 25.901 55.0363C25.3824 54.6904 24.7624 54.5292 24.1409 54.5787C23.4252 54.5787 22.639 54.6139 21.7942 54.6667C20.3852 54.7382 18.9853 54.9345 17.611 55.2534C17.0889 55.3766 16.6665 55.5115 16.379 55.5995L16.0446 55.7051L15.9272 55.7403C15.9272 55.7403 15.9624 55.7403 16.0387 55.6875L16.3672 55.5584C16.7688 55.4094 17.1781 55.2821 17.5934 55.1771C18.9675 54.8286 20.3726 54.6164 21.7883 54.5435C22.6155 54.4907 23.4076 54.4731 24.1351 54.4672C24.7845 54.4172 25.4312 54.5934 25.9656 54.9659C26.1268 55.117 26.2421 55.3107 26.2982 55.5245C26.3542 55.7383 26.3488 55.9636 26.2824 56.1745C26.2412 56.2875 26.175 56.3898 26.0888 56.4737L25.9773 56.5558Z" fill="#263238"/>
<path d="M37.899 56.1979L32.3019 55.8928L32.7184 57.4886L38.8201 57.5649L37.899 56.1979Z" fill="white"/>
<path d="M29.2568 60.8857C29.2568 60.8857 31.762 60.5865 34.8598 60.299C37.9575 60.0115 40.4803 59.7709 40.4803 59.8003C40.4803 59.8296 37.9751 60.0995 34.8715 60.387C31.7679 60.6745 29.2568 60.915 29.2568 60.8857Z" fill="#263238"/>
<path d="M47.9666 140.054H4.86215V147.253H47.9666V140.054Z" fill="#455A64"/>
<path d="M6.18219 143.533H26.1298V163.762C26.1298 164.839 25.7021 165.872 24.9407 166.633C24.1793 167.395 23.1466 167.822 22.0699 167.822H10.2421C9.70896 167.822 9.18102 167.717 8.68845 167.513C8.19588 167.309 7.74831 167.01 7.37131 166.633C6.99432 166.256 6.69527 165.809 6.49123 165.316C6.2872 164.824 6.18219 164.296 6.18219 163.762V143.533Z" fill="#455A64"/>
<path d="M26.1417 150.11C26.0839 149.696 26.0565 149.278 26.0595 148.86C26.0437 147.73 25.896 146.606 25.6195 145.51C25.523 145.165 25.3461 144.847 25.1032 144.583C24.8173 144.306 24.5026 144.06 24.1645 143.85C23.4007 143.403 22.5469 143.133 21.6652 143.058C19.7878 142.917 17.6815 142.982 15.4873 142.999C13.293 143.017 11.1751 142.823 9.33873 143.228C8.46837 143.359 7.66475 143.771 7.05062 144.402C6.60635 145.026 6.35355 145.766 6.32312 146.531C6.18818 147.957 6.21751 149.124 6.19405 149.928C6.19405 150.304 6.19405 150.609 6.19405 150.855C6.20268 150.963 6.20268 151.07 6.19405 151.178C6.16742 151.072 6.15557 150.964 6.15885 150.855C6.15885 150.609 6.15885 150.304 6.12951 149.928C6.12951 149.124 6.05911 147.963 6.16471 146.514C6.18736 145.7 6.44626 144.912 6.90981 144.243C7.55588 143.561 8.41032 143.113 9.33873 142.97C10.3268 142.769 11.3347 142.683 12.3426 142.712C13.3752 142.712 14.4488 142.712 15.546 142.712C17.7461 142.712 19.8288 142.636 21.7532 142.794C22.6728 142.881 23.561 143.174 24.3522 143.651C24.705 143.876 25.0316 144.139 25.3261 144.437C25.6045 144.725 25.8062 145.078 25.9128 145.463C26.178 146.58 26.2963 147.725 26.2649 148.872C26.2649 149.248 26.2649 149.553 26.2649 149.799C26.2332 149.906 26.192 150.01 26.1417 150.11Z" fill="#263238"/>
<path d="M25.9948 152.24C25.9948 152.328 21.6063 152.392 16.1912 152.392C10.776 152.392 6.3875 152.328 6.3875 152.24C6.3875 152.152 10.776 152.087 16.1912 152.087C21.6063 152.087 25.9948 152.187 25.9948 152.24Z" fill="#263238"/>
<path d="M11.8966 168.028C11.8086 168.028 11.744 164.478 11.744 160.102C11.744 155.725 11.8086 152.169 11.8966 152.169C11.9846 152.169 12.0491 155.719 12.0491 160.102C12.0491 164.484 11.9787 168.028 11.8966 168.028Z" fill="#263238"/>
<path d="M20.8966 167.975C20.8144 167.975 20.744 164.455 20.744 160.125C20.744 155.795 20.8144 152.269 20.8966 152.269C20.9787 152.269 21.0491 155.789 21.0491 160.125C21.0491 164.461 20.9787 167.975 20.8966 167.975Z" fill="#263238"/>
<path d="M47.9666 140.054L50.4542 143.533C50.4542 143.533 52.6777 164.267 51.6862 165.241C50.6947 166.215 47.3623 166.191 47.3623 166.191L46.4529 141.368L47.9666 140.054Z" fill="#455A64"/>
<path d="M40.1577 146.965C39.7668 144.653 39.7352 142.294 40.0639 139.972C40.1546 141.143 40.182 142.318 40.146 143.492C40.2122 144.649 40.2162 145.808 40.1577 146.965Z" fill="#263238"/>
<path d="M48.0136 140.171C48.1579 140.548 48.2468 140.943 48.2777 141.345C48.395 142.072 48.5123 143.105 48.5769 144.214C48.627 144.75 48.6053 145.291 48.5123 145.821C48.4278 146.278 48.1898 146.692 47.8376 146.995C47.604 147.199 47.3085 147.319 46.9987 147.335C46.7757 147.335 46.6701 147.282 46.6701 147.27C47.0503 147.243 47.41 147.088 47.691 146.83C47.9835 146.548 48.1751 146.177 48.2366 145.774C48.3082 145.263 48.3201 144.745 48.2718 144.231C48.1545 141.984 47.9256 140.183 48.0136 140.171Z" fill="#263238"/>
<path d="M245.9 143.445L248.645 140.852C251.618 141.299 254.65 140.618 257.146 138.943C259.642 137.268 261.421 134.72 262.135 131.8C262.848 128.881 262.444 125.799 261.002 123.162C259.56 120.525 257.184 118.522 254.341 117.547C251.497 116.572 248.392 116.696 245.635 117.893C242.878 119.091 240.669 121.276 239.441 124.02C238.213 126.763 238.055 129.867 238.998 132.721C239.941 135.575 241.917 137.973 244.538 139.444L245.9 143.445Z" fill="white"/>
<path d="M245.9 143.445L245.812 143.175C245.753 142.999 245.671 142.741 245.565 142.407C245.342 141.726 245.014 140.729 244.591 139.426L244.544 139.473C244.551 139.479 244.559 139.482 244.568 139.482C244.576 139.482 244.585 139.479 244.591 139.473C244.596 139.467 244.598 139.46 244.598 139.453C244.598 139.446 244.596 139.438 244.591 139.432C242.845 138.442 241.374 137.03 240.314 135.325C239.986 134.799 239.699 134.248 239.458 133.677C239.217 133.062 239.021 132.431 238.871 131.788C238.13 128.77 238.594 125.582 240.163 122.9C241.733 120.218 244.285 118.252 247.278 117.419C250.272 116.586 253.473 116.951 256.202 118.438C258.931 119.924 260.974 122.414 261.899 125.381C262.432 127.047 262.587 128.811 262.35 130.544C261.946 133.629 260.357 136.435 257.921 138.37L257.51 138.681C257.382 138.789 257.245 138.885 257.1 138.969L256.261 139.491C255.706 139.778 255.136 140.034 254.553 140.26C252.677 140.941 250.66 141.142 248.686 140.846H248.657C247.777 141.691 247.096 142.336 246.639 142.782L246.111 143.287L245.935 143.463L246.111 143.305L246.633 142.818L248.704 140.899H248.675C250.663 141.215 252.7 141.024 254.594 140.342C255.183 140.123 255.758 139.866 256.313 139.573L257.164 139.057C257.313 138.973 257.454 138.877 257.587 138.769L257.997 138.453C259.925 136.931 261.346 134.86 262.071 132.513C262.796 130.166 262.791 127.655 262.057 125.311C261.48 123.517 260.501 121.88 259.194 120.523C257.818 119.105 256.116 118.046 254.237 117.437C254.005 117.351 253.768 117.282 253.527 117.232L252.817 117.062L252.101 116.956C251.863 116.91 251.622 116.885 251.379 116.88L250.664 116.845C250.423 116.83 250.182 116.83 249.942 116.845C249.707 116.845 249.467 116.845 249.232 116.886L248.534 116.991C246.709 117.284 244.978 117.997 243.477 119.074C241.504 120.475 239.999 122.436 239.156 124.703C238.313 126.97 238.17 129.439 238.748 131.788C238.908 132.438 239.116 133.075 239.37 133.694C239.617 134.269 239.907 134.824 240.238 135.355C241.318 137.066 242.811 138.479 244.58 139.462V139.391C244.569 139.389 244.559 139.391 244.55 139.397C244.542 139.402 244.535 139.411 244.533 139.421L245.559 142.413L245.817 143.17C245.864 143.387 245.9 143.445 245.9 143.445Z" fill="#263238"/>
<path d="M244.192 128.749L246.005 127.123L249.162 130.245L254.888 124.906L256.39 126.707L248.739 133.548L244.192 128.749Z" fill="#263238"/>
</svg>
